<?xml version="1.0" standalone="no"?>
<!DOCTYPE svg PUBLIC "-//W3C//DTD SVG 1.1//EN" "http://www.w3.org/Graphics/SVG/1.1/DTD/svg11.dtd" >
<svg xmlns="http://www.w3.org/2000/svg" xmlns:xlink="http://www.w3.org/1999/xlink" version="1.1">
<metadata>
Created by FontForge 20170731 at Wed Mar 24 16:38:50 2021
 By Aleksey,,,
Copyright (c) 2020 by Andriansyah MK. All rights reserved.
</metadata>
<defs>
<font id="Landasans-Medium" horiz-adv-x="720" >
  <font-face 
    font-family="Landasans Medium"
    font-weight="500"
    font-stretch="condensed"
    units-per-em="2048"
    panose-1="0 0 6 6 0 0 0 0 0 0"
    ascent="1638"
    descent="-410"
    x-height="1073"
    cap-height="1442"
    bbox="-494 -410 1409 1776"
    underline-thickness="102"
    underline-position="-307"
    unicode-range="U+0020-FB02"
  />
<missing-glyph horiz-adv-x="1024" 
d="M840 1638v-2048h-650v2048h650zM682 1501h-338v-67h133v-76h-135v-68h340v68h-135v76h135v67zM547 1237h-205v-213h340v70h-135v143zM477 1167v-73h-67v73h67zM682 969h-340v-68h135v-76h-135v-67h205v143h135v68zM682 846h-68v-135h-272v-70h340v205zM682 596h-205v-115
h70v47h67v-96h-204v164h-68v-231h340v231zM682 242h-340v-232h340v232zM614 174v-96h-204v96h204zM682 -37h-340v-67h143l-143 -97v-67h340v67h-209l143 97h66v67z" />
    <glyph glyph-name="fi" unicode="fi" horiz-adv-x="847" 
d="M766 1073v-1073h-162v926h-280v-926h-162v926h-121v147h121v82q0 143 75.5 215t202.5 72h101v-123h-70q-68 0 -107.5 -40t-39.5 -124v-82h442z" />
    <glyph glyph-name="fl" unicode="fl" horiz-adv-x="847" 
d="M766 1442v-1442h-162v1319h-133q-68 0 -107.5 -40t-39.5 -124v-82h178v-147h-178v-926h-162v926h-121v147h121v82q0 143 75.5 215t202.5 72h326z" />
    <glyph glyph-name="f_f_i" unicode="ffi" horiz-adv-x="1261" 
d="M1182 1073v-1073h-162v928h-272v-928h-162v928h-267v-928h-161v928h-117v145h117v82q0 143 75.5 215t202.5 72h62v-123h-31q-69 0 -108.5 -40t-39.5 -124v-82h267v82q0 143 75.5 215t202.5 72h62v-123h-31q-68 0 -107.5 -40t-39.5 -124v-82h434z" />
    <glyph glyph-name=".notdef" horiz-adv-x="1024" 
d="M840 1638v-2048h-650v2048h650zM682 1501h-338v-67h133v-76h-135v-68h340v68h-135v76h135v67zM547 1237h-205v-213h340v70h-135v143zM477 1167v-73h-67v73h67zM682 969h-340v-68h135v-76h-135v-67h205v143h135v68zM682 846h-68v-135h-272v-70h340v205zM682 596h-205v-115
h70v47h67v-96h-204v164h-68v-231h340v231zM682 242h-340v-232h340v232zM614 174v-96h-204v96h204zM682 -37h-340v-67h143l-143 -97v-67h340v67h-209l143 97h66v67z" />
    <glyph glyph-name=".null" horiz-adv-x="0" 
 />
    <glyph glyph-name="nonmarkingreturn" horiz-adv-x="682" 
 />
    <glyph glyph-name="space" unicode=" " horiz-adv-x="311" 
 />
    <glyph glyph-name="exclam" unicode="!" horiz-adv-x="325" 
d="M113 287l-31 313v842h162v-842l-35 -313h-96zM90 0v168h146v-168h-146z" />
    <glyph glyph-name="quotedbl" unicode="&#x22;" horiz-adv-x="425" 
d="M41 1444h147v-180l-53 -119h-69l45 119h-70v180zM238 1444h147v-180l-53 -119h-70l45 119h-69v180z" />
    <glyph glyph-name="numbersign" unicode="#" horiz-adv-x="1005" 
d="M950 926h-162l-55 -400h170l-24 -166h-170l-52 -360h-161l51 360h-201l-51 -360h-156l51 360h-155l22 166h156l57 400h-168l21 159h170l49 357h158l-51 -357h200l51 357h162l-51 -357h160zM571 526l56 400h-201l-55 -400h200z" />
    <glyph glyph-name="dollar" unicode="$" horiz-adv-x="647" 
d="M584 885h-156v155q0 65 -27.5 98t-68.5 33q-44 0 -72.5 -30t-28.5 -94v-154q0 -43 19.5 -76t50.5 -55.5t68.5 -43t75.5 -45.5t69 -56t50.5 -81t19.5 -114v-162q0 -133 -51 -199.5t-156 -78.5v-170h-105v170q-103 12 -154.5 79.5t-51.5 198.5v150h153v-150
q0 -72 29 -106.5t78 -34.5q47 0 74.5 34.5t27.5 106.5v152q0 44 -19 78t-49.5 56t-67.5 43t-74 45.5t-67.5 55.5t-49.5 81.5t-19 115.5v160q0 233 190 260v135h105v-133q207 -21 207 -269v-155z" />
    <glyph glyph-name="percent" unicode="%" horiz-adv-x="980" 
d="M252 842q-97 0 -150 63.5t-53 188.5v114q0 125 53 189.5t150 64.5h10q97 0 150 -64.5t53 -189.5v-114q0 -125 -53 -188.5t-150 -63.5h-10zM51 0l740 1442h127l-742 -1442h-125zM254 944h4q96 0 96 139v138q0 139 -96 139h-2q-96 0 -96 -139v-138q0 -139 94 -139zM723 -20
q-104 0 -153.5 61.5t-49.5 189.5v117q0 127 49.5 189.5t153.5 62.5h10q203 0 203 -252v-117q0 -127 -50 -189t-153 -62h-10zM725 82h4q96 0 96 139v137q0 140 -96 140h-2q-96 0 -96 -140v-137q0 -139 94 -139z" />
    <glyph glyph-name="ampersand" unicode="&#x26;" horiz-adv-x="741" 
d="M674 143h28v-141l-26 -2q-49 0 -94 22.5t-74 59.5q-29 -44 -79.5 -71t-113.5 -27q-135 0 -208.5 75.5t-73.5 206.5v269q0 146 123 204q-46 25 -78.5 75t-32.5 118v252q0 132 70.5 203t201.5 71q119 0 192 -69.5t73 -204.5v-252h-164v237q0 74 -28.5 109t-74.5 35
q-108 0 -108 -144v-208q0 -144 123 -144l368 2v-145h-125v-393q0 -62 28 -100t73 -38zM424 283v391h-96q-55 0 -95 -31.5t-40 -110.5l2 -249q0 -70 33 -108t85 -38q111 0 111 146z" />
    <glyph glyph-name="quotesingle" unicode="'" horiz-adv-x="237" 
d="M41 1262v180h147v-180l-53 -119h-69l45 119h-70z" />
    <glyph glyph-name="parenleft" unicode="(" horiz-adv-x="382" 
d="M49 -68v1391q0 313 260 313h49v-131h-47q-104 0 -104 -178v-1399q0 -178 104 -178h47v-131h-49q-260 0 -260 313z" />
    <glyph glyph-name="parenright" unicode=")" horiz-adv-x="382" 
d="M25 -381v131h47q104 0 104 178v1399q0 178 -104 178h-47v131h49q260 0 260 -313v-1391q0 -313 -260 -313h-49z" />
    <glyph glyph-name="asterisk" unicode="*" horiz-adv-x="415" 
d="M266 1300l35 -28l53 -66l-69 -59l-56 65l-22 50l-21 -50l-55 -65l-70 59l54 66l35 28l-46 7l-79 24l26 86l80 -24l41 -23l-10 49v84h90v-84l-10 -49l41 23l79 24l27 -86l-80 -24z" />
    <glyph glyph-name="plus" unicode="+" horiz-adv-x="610" 
d="M578 635v-135h-205v-207h-135v207h-205v135h205v207h135v-207h205z" />
    <glyph glyph-name="comma" unicode="," horiz-adv-x="231" 
d="M41 0v168h147v-168l-53 -131h-69l45 131h-70z" />
    <glyph glyph-name="hyphen" unicode="-" horiz-adv-x="610" 
d="M33 702h545v-120h-545v120z" />
    <glyph glyph-name="period" unicode="." horiz-adv-x="235" 
d="M45 168h145v-168h-145v168z" />
    <glyph glyph-name="slash" unicode="/" horiz-adv-x="501" 
d="M23 0l321 1585h135l-323 -1585h-133z" />
    <glyph glyph-name="zero" unicode="0" horiz-adv-x="677" 
d="M332 -20q-55 0 -100.5 15.5t-83.5 48.5t-59 93t-21 142v882q0 156 74 227.5t190 71.5h10q119 0 193.5 -71.5t74.5 -227.5v-882q0 -82 -21.5 -142t-59.5 -93t-84.5 -48.5t-102.5 -15.5h-10zM336 109h4q46 0 79.5 36t33.5 113v924q0 76 -34 112.5t-81 36.5h-2
q-44 0 -77.5 -37t-33.5 -112v-924q0 -76 33 -112.5t78 -36.5z" />
    <glyph glyph-name="one" unicode="1" horiz-adv-x="389" 
d="M307 1442v-1442h-162v1303h-122v139h284z" />
    <glyph glyph-name="two" unicode="2" horiz-adv-x="690" 
d="M68 0v422q0 70 21.5 125.5t55.5 91.5t75.5 66t82.5 55t75 51t55.5 62t21.5 81v244q0 68 -31 99.5t-78 31.5q-44 0 -76 -35t-32 -102v-178h-168v188q0 124 70 190t206 66t206.5 -66t70.5 -190v-252q0 -71 -21 -127t-55 -92t-75.5 -66t-82.5 -55t-75 -51.5t-55 -63.5
t-21 -83v-258h217v235h168v-389h-555z" />
    <glyph glyph-name="three" unicode="3" horiz-adv-x="704" 
d="M520 754q50 -25 83.5 -76t33.5 -129v-295q0 -131 -74.5 -202.5t-216.5 -71.5q-129 0 -203.5 69t-74.5 205v180h161v-166q0 -73 31.5 -109t87.5 -36q59 0 94 36.5t35 108.5v264q0 142 -141 142h-90v147l86 -2q54 0 92.5 32t38.5 110v219q0 77 -33.5 111t-83.5 34
q-46 0 -79.5 -36.5t-33.5 -108.5v-144h-161v160q0 135 74 203.5t198 68.5q136 0 208.5 -70.5t72.5 -201.5v-250q0 -63 -30.5 -113t-74.5 -79z" />
    <glyph glyph-name="four" unicode="4" horiz-adv-x="677" 
d="M596 1442v-1442h-162v375h-409v149l350 918h221zM184 524h250v666z" />
    <glyph glyph-name="five" unicode="5" horiz-adv-x="690" 
d="M379 991q120 0 182 -63t62 -205v-479q0 -129 -75.5 -196.5t-199.5 -67.5q-133 0 -206.5 69.5t-73.5 194.5v178h161v-164q0 -68 35 -101.5t82 -33.5t81 33.5t34 101.5v461q0 76 -33.5 113.5t-79.5 37.5q-47 0 -81 -37.5t-34 -113.5v-27h-161l-4 750h548v-162h-387l4 -348
q43 59 146 59z" />
    <glyph glyph-name="six" unicode="6" horiz-adv-x="698" 
d="M631 1073h-162v111q0 72 -35.5 108.5t-85.5 36.5q-49 0 -84 -36t-35 -109v-252q42 59 152 59q123 0 186.5 -63t63.5 -205v-465q0 -133 -76 -203.5t-201 -70.5q-138 0 -212 72t-74 202v926q0 136 75.5 205t202.5 69q135 0 210 -72.5t75 -201.5v-111zM350 870
q-50 0 -84.5 -37.5t-34.5 -113.5l-2 -445q0 -70 33.5 -107.5t87.5 -37.5q50 0 84.5 35.5t34.5 109.5v445q0 76 -34.5 113.5t-84.5 37.5z" />
    <glyph glyph-name="seven" unicode="7" horiz-adv-x="604" 
d="M41 1280v162h526v-162l-262 -1280h-168l260 1280h-356z" />
    <glyph glyph-name="eight" unicode="8" horiz-adv-x="710" 
d="M524 758q119 -64 119 -209v-291q0 -133 -72.5 -203.5t-218.5 -70.5q-134 0 -209 69t-75 205v291q0 149 114 207q-106 65 -106 196v232q0 134 73.5 204t200.5 70q136 0 208.5 -72.5t72.5 -201.5v-232q0 -126 -107 -194zM238 1184v-217q0 -74 31.5 -110t82.5 -36
q47 0 82 39.5t35 106.5v217q0 75 -31.5 110t-85.5 35q-53 0 -83.5 -35.5t-30.5 -109.5zM481 272v260q0 74 -36 110t-91 36q-53 0 -89 -36t-36 -110v-260q0 -145 125 -145q127 0 127 145z" />
    <glyph glyph-name="nine" unicode="9" horiz-adv-x="686" 
d="M338 1458q138 0 209 -71.5t71 -202.5v-926q0 -136 -74 -205t-200 -69q-134 0 -205 71t-71 203v100h161v-86q0 -72 33.5 -108.5t79.5 -36.5q49 0 82 36t33 109v244q-41 -61 -148 -61q-241 0 -241 268v461q0 135 73 204.5t197 69.5zM336 575q49 0 84 38t35 114l2 442
q0 71 -30.5 108.5t-84.5 37.5q-113 0 -113 -146v-442q0 -75 33 -113.5t74 -38.5z" />
    <glyph glyph-name="colon" unicode=":" horiz-adv-x="229" 
d="M45 616v168h145v-168h-145zM45 0v168h145v-168h-145z" />
    <glyph glyph-name="semicolon" unicode=";" horiz-adv-x="231" 
d="M45 616v168h145v-168h-145zM66 -131l45 131h-70v168h147v-168l-53 -131h-69z" />
    <glyph glyph-name="less" unicode="&#x3c;" horiz-adv-x="557" 
d="M547 250h-182l-342 336l342 338h182l-342 -338z" />
    <glyph glyph-name="equal" unicode="=" horiz-adv-x="753" 
d="M33 754h688v-121h-688v121zM33 440h688v-123h-688v123z" />
    <glyph glyph-name="greater" unicode="&#x3e;" horiz-adv-x="550" 
d="M10 250l342 336l-342 338h183l342 -338l-342 -336h-183z" />
    <glyph glyph-name="question" unicode="?" horiz-adv-x="641" 
d="M223 287v184q0 65 11.5 115.5t29.5 82t39.5 57t43.5 48t40 47.5t29.5 63.5t11.5 88.5v207q0 67 -32 99t-77 32q-41 0 -72.5 -36t-31.5 -104v-131h-170v170q0 124 70 190t204 66q136 0 206.5 -66t70.5 -190v-206q0 -96 -21 -162t-51 -101t-59.5 -66t-50.5 -80.5
t-21 -121.5v-186h-170zM223 0v168h170v-168h-170z" />
    <glyph glyph-name="at" unicode="@" horiz-adv-x="1050" 
d="M725 1102v-592q0 -69 17 -99t53 -30q14 0 24.5 5t17 15.5t10 20.5t5 28t2 28.5t0.5 31.5v596q0 63 -19 107.5t-48 69t-76.5 38t-89 17t-101.5 3.5t-101.5 -3.5t-89 -17t-76.5 -38t-48 -69t-19 -107.5v-733q0 -64 19.5 -110t50 -72.5t78.5 -42t93 -20.5t105 -5h445v-123
h-445q-236 0 -351 84.5t-115 284.5v739q0 104 28.5 174.5t88.5 110.5t140.5 56.5t196.5 16.5q115 0 196 -16.5t141.5 -56.5t90 -110.5t29.5 -174.5v-604q0 -107 -33 -161t-119 -54q-71 0 -108 24.5t-49 73.5q-45 -98 -162 -98q-93 0 -148 56t-55 159v405q0 104 53 159.5
t140 55.5q53 0 95 -27t62 -67v72h72zM614 510v391q0 125 -100 125t-100 -125v-391q0 -129 100 -129q46 0 73 31.5t27 97.5z" />
    <glyph glyph-name="A" unicode="A" horiz-adv-x="704" 
d="M506 0l-35 295h-227l-31 -295h-164l176 1442h258l185 -1442h-162zM260 451h195l-97 829h-10z" />
    <glyph glyph-name="B" unicode="B" horiz-adv-x="714" 
d="M545 754q102 -52 102 -211v-287q0 -256 -280 -256h-285l2 1442h283q127 0 198.5 -66.5t71.5 -201.5v-216q0 -64 -24 -119t-68 -85zM244 1290v-463h112q51 0 86 36.5t35 113.5v172q0 75 -34 108t-85 33h-114zM477 295v217q0 77 -31.5 113.5t-80.5 36.5h-121v-508h112
q53 0 87 32t34 109z" />
    <glyph glyph-name="C" unicode="C" 
d="M354 -20q-132 0 -209 74.5t-77 236.5v870q0 152 77.5 225.5t208.5 73.5h11q132 0 210 -75.5t78 -235.5v-191h-166v203q0 78 -35.5 116t-91.5 38h-2q-54 0 -89.5 -38t-35.5 -116v-870q0 -79 35 -115.5t88 -36.5h4q56 0 91.5 36.5t35.5 115.5v252h166v-252
q0 -162 -78 -236.5t-210 -74.5h-11z" />
    <glyph glyph-name="D" unicode="D" horiz-adv-x="710" 
d="M82 0v1442h280q133 0 207 -60.5t74 -207.5v-906q0 -66 -14 -114t-37.5 -77.5t-61 -47t-77 -23.5t-91.5 -6h-280zM244 154h114q121 0 121 139v856q0 76 -33.5 108.5t-85.5 32.5h-116v-1136z" />
    <glyph glyph-name="E" unicode="E" horiz-adv-x="593" 
d="M82 0l2 1442h473v-160h-311v-448h262v-154h-262v-518h311v-162h-475z" />
    <glyph glyph-name="F" unicode="F" horiz-adv-x="593" 
d="M82 0l2 1442h473v-160h-311v-448h262v-154h-262v-680h-164z" />
    <glyph glyph-name="G" unicode="G" 
d="M653 961h-166v200q0 78 -35.5 116t-91.5 38h-2q-52 0 -87 -38t-35 -116v-870q0 -79 34.5 -115.5t85.5 -36.5h6q138 0 138 152v325h-144v162h297v-475q0 -163 -78 -243t-210 -80h-11q-129 0 -207.5 80t-78.5 243v846q0 160 78 235.5t208 75.5h11q133 0 210.5 -75
t77.5 -236v-188z" />
    <glyph glyph-name="H" unicode="H" horiz-adv-x="735" 
d="M82 0v1442h162v-625h248v625h161v-1442h-161v655h-248v-655h-162z" />
    <glyph glyph-name="I" unicode="I" horiz-adv-x="323" 
d="M82 0v1442h162v-1442h-162z" />
    <glyph glyph-name="J" unicode="J" horiz-adv-x="698" 
d="M350 -16q-139 0 -210.5 74.5t-71.5 234.5v235h161v-235q0 -76 34.5 -113t84.5 -37q51 0 86 37t35 113v1149h162v-1149q0 -159 -70.5 -234t-210.5 -75z" />
    <glyph glyph-name="K" unicode="K" horiz-adv-x="679" 
d="M82 0v1442h162v-576l10 -8l209 584h178l-254 -684l256 -758h-162l-192 551l-47 -135l2 -416h-162z" />
    <glyph glyph-name="L" unicode="L" horiz-adv-x="555" 
d="M82 0v1442h162v-1278h272v-164h-434z" />
    <glyph glyph-name="M" unicode="M" horiz-adv-x="860" 
d="M561 1442h217v-1442h-162v1038l-124 -1038h-117l-131 1044v-1044h-162v1442h207l143 -932z" />
    <glyph glyph-name="N" unicode="N" horiz-adv-x="735" 
d="M492 1442h163v-1442h-163l-246 864v-864h-164v1442h164l246 -946v946z" />
    <glyph glyph-name="O" unicode="O" horiz-adv-x="727" 
d="M358 -20q-133 0 -211.5 74.5t-78.5 236.5v872q0 297 290 297h11q290 0 290 -299v-870q0 -162 -78.5 -236.5t-211.5 -74.5h-11zM360 139h5q116 0 116 140v892q0 78 -33 111t-83 33h-3q-50 0 -83 -33t-33 -111v-892q0 -140 114 -140z" />
    <glyph glyph-name="P" unicode="P" horiz-adv-x="675" 
d="M350 1442q134 0 204.5 -51.5t70.5 -184.5v-389q0 -272 -275 -272h-106v-545h-162v1442h268zM467 844v336q0 39 -11 64t-32 36t-40 14.5t-46 3.5h-94v-593h102q61 0 91 30.5t30 108.5z" />
    <glyph glyph-name="Q" unicode="Q" horiz-adv-x="724" 
d="M653 293q0 -139 -59 -214t-162 -91v-13q0 -73 35 -105t88 -32h78v-137h-80q-129 0 -196.5 70t-67.5 209v8q-103 16 -162 90.5t-59 214.5v858q0 160 77.5 234.5t208.5 74.5h11q133 0 210.5 -75t77.5 -236v-856zM246 293q0 -78 32.5 -115t77.5 -37h6q48 0 81.5 37t33.5 115
v868q0 78 -34 116t-83 38h-2q-46 0 -79 -38.5t-33 -115.5v-868z" />
    <glyph glyph-name="R" unicode="R" horiz-adv-x="708" 
d="M479 561l162 -561h-162l-149 530h-86v-530h-162v1442h266q283 0 283 -248v-383q0 -206 -152 -250zM358 696q61 0 91 31t30 109v344q0 39 -11 64t-32.5 36t-40.5 14.5t-47 3.5h-104v-602h114z" />
    <glyph glyph-name="S" unicode="S" horiz-adv-x="706" 
d="M348 -20q-39 0 -77 9t-75.5 31.5t-66 55.5t-46 85.5t-17.5 117.5v223h159v-211q0 -79 35.5 -115.5t91.5 -36.5h4q52 0 86.5 36.5t34.5 115.5v178q0 52 -22.5 93t-59 69t-80 54.5t-87.5 57t-80.5 66.5t-59 93t-22.5 128v154q0 80 25.5 137t70 86t91.5 41t103 12h11
q54 0 101.5 -15.5t87.5 -48.5t63.5 -90.5t23.5 -134.5v-210h-160v200q0 79 -36 116.5t-93 37.5h-2q-51 0 -88 -38.5t-37 -115.5v-104q0 -52 23 -93t59.5 -69t81 -54t89 -56t81 -67.5t59.5 -96t23 -132.5v-210q0 -81 -24.5 -141t-67 -93.5t-90.5 -49t-103 -15.5h-10z" />
    <glyph glyph-name="T" unicode="T" horiz-adv-x="663" 
d="M252 0v1282h-211v160h586v-160h-213v-1282h-162z" />
    <glyph glyph-name="U" unicode="U" horiz-adv-x="727" 
d="M358 -20q-133 0 -211.5 74.5t-78.5 236.5v1151h168v-1151q0 -79 34.5 -115.5t89.5 -36.5h5q58 0 93.5 36t35.5 116v1151h165v-1151q0 -162 -78.5 -236.5t-211.5 -74.5h-11z" />
    <glyph glyph-name="V" unicode="V" horiz-adv-x="696" 
d="M221 0l-180 1442h162l141 -1280h12l140 1280h163l-180 -1442h-258z" />
    <glyph glyph-name="W" unicode="W" horiz-adv-x="1007" 
d="M815 1442h156l-176 -1442h-189l-100 928l-103 -928h-186l-176 1442h162l116 -1106l119 1106h133l123 -1106z" />
    <glyph glyph-name="X" unicode="X" horiz-adv-x="675" 
d="M41 0l203 735l-203 707h162l137 -524l137 524h162l-203 -707l203 -735h-162l-137 549l-137 -549h-162z" />
    <glyph glyph-name="Y" unicode="Y" horiz-adv-x="671" 
d="M471 1442h164l-213 -846v-596h-162l-4 596l-215 846h162l137 -613z" />
    <glyph glyph-name="Z" unicode="Z" horiz-adv-x="675" 
d="M41 0v162l426 1118h-391v162h557v-160l-428 -1118l434 -2v-162h-598z" />
    <glyph glyph-name="bracketleft" unicode="[" horiz-adv-x="493" 
d="M82 -389l2 2025h379v-112h-230v-1805h238v-108h-389z" />
    <glyph glyph-name="backslash" unicode="\" horiz-adv-x="501" 
d="M158 1585l321 -1585h-133l-323 1585h135z" />
    <glyph glyph-name="bracketright" unicode="]" horiz-adv-x="491" 
d="M412 -389h-389v108h237v1805h-229v112h379z" />
    <glyph glyph-name="asciicircum" unicode="^" horiz-adv-x="432" 
d="M281 1038l-58 295h-14l-57 -295h-123l114 404h148l112 -404h-122z" />
    <glyph glyph-name="underscore" unicode="_" horiz-adv-x="753" 
d="M33 121h688v-121h-688v121z" />
    <glyph glyph-name="grave" unicode="`" horiz-adv-x="307" 
d="M287 1505h-97l-159 252h145z" />
    <glyph glyph-name="a" unicode="a" horiz-adv-x="679" 
d="M338 1098q274 0 274 -228v-870h-131l-4 70q-55 -90 -198 -90q-121 0 -178.5 58.5t-57.5 203.5v123q0 57 22.5 101t58 70.5t79 47t87 37.5t79 35t58 46.5t22.5 65.5v88q0 65 -27.5 89t-73.5 24q-102 0 -102 -113v-139h-166v141q0 64 23 112.5t62 75.5t82 39.5t91 12.5z
M453 252v313q-27 -19 -77 -43t-82.5 -40t-58.5 -47t-26 -70v-121q0 -125 123 -125q52 0 86.5 31t34.5 102z" />
    <glyph glyph-name="b" unicode="b" 
d="M82 0v1442h162v-445q27 47 73.5 74t104.5 27q110 0 170.5 -67.5t60.5 -180.5v-627q0 -109 -64 -176t-167 -67q-163 0 -211 124v-104h-129zM244 272q0 -76 37 -112.5t90 -36.5q55 0 88 38.5t33 110.5v529q0 75 -33 115t-88 40q-52 0 -89.5 -39.5t-37.5 -115.5v-529z" />
    <glyph glyph-name="c" unicode="c" horiz-adv-x="679" 
d="M338 -20q-122 0 -196 69.5t-74 208.5v561q0 136 74.5 207.5t195.5 71.5q130 0 202 -73.5t72 -205.5v-168h-163v158q0 75 -33 110t-78 35q-43 0 -76 -35t-33 -110v-537q0 -78 33 -113.5t78 -35.5q44 0 76.5 36t32.5 113v160h163v-174q0 -136 -72 -207t-202 -71z" />
    <glyph glyph-name="d" unicode="d" horiz-adv-x="704" 
d="M469 1442h162v-1442h-127v104q-48 -124 -211 -124q-106 0 -169 75t-63 217v521q0 152 55.5 228.5t176.5 76.5q120 0 176 -99v443zM469 272v535q0 76 -37 112.5t-90 36.5t-86 -43t-33 -118v-523q0 -72 32.5 -110.5t86.5 -38.5q53 0 90 36.5t37 112.5z" />
    <glyph glyph-name="e" unicode="e" horiz-adv-x="681" 
d="M614 467h-385v-191q0 -77 31.5 -114t81.5 -37h2q49 0 79 37t30 114v27l161 2v-43q0 -137 -72.5 -209.5t-193.5 -72.5h-10q-121 0 -195.5 72t-74.5 208v563q0 135 74 205t196 70h10q119 0 192.5 -70.5t73.5 -204.5v-356zM342 954q-50 0 -81.5 -36t-31.5 -113v-217h224v217
q0 75 -33 112t-76 37h-2z" />
    <glyph glyph-name="f" unicode="f" horiz-adv-x="538" 
d="M471 1319q-68 0 -107.5 -40t-39.5 -124v-82h178v-145h-178v-928h-162v928h-121v145h121v82q0 143 75.5 215t202.5 72h62v-123h-31z" />
    <glyph glyph-name="g" unicode="g" horiz-adv-x="690" 
d="M487 1073h131v-1126q0 -138 -74 -208.5t-204 -70.5q-137 0 -208 73t-71 206v22h162q0 -81 26 -124.5t91 -43.5q117 0 117 162v205q-23 -47 -69 -74.5t-99 -27.5q-112 0 -170 65.5t-58 179.5v543q0 115 57.5 179.5t170.5 64.5q64 0 113 -35t69 -94zM340 209q43 0 80 38.5
t37 112.5v445q0 77 -33.5 114t-83.5 37q-55 0 -86 -38t-31 -113v-445q0 -74 31 -112.5t86 -38.5z" />
    <glyph glyph-name="h" unicode="h" 
d="M446 1094q101 0 154 -63t53 -177v-854h-161v807q0 74 -29 111.5t-82 37.5q-56 0 -96.5 -37.5t-40.5 -113.5v-805h-162v1442h162v-451q31 47 85 75t117 28z" />
    <glyph glyph-name="i" unicode="i" horiz-adv-x="325" 
d="M82 1221v221h162v-221h-162zM82 0v1073h162v-1073h-162z" />
    <glyph glyph-name="j" unicode="j" horiz-adv-x="315" 
d="M72 1221v221h161v-221h-161zM-106 -332v135h30q148 0 148 162v1108h161v-1118q0 -143 -75.5 -215t-202.5 -72h-61z" />
    <glyph glyph-name="k" unicode="k" horiz-adv-x="661" 
d="M82 0v1442h162v-762h4l207 393h163l-233 -444l240 -629h-166l-185 461l-36 -62l2 -399h-158z" />
    <glyph glyph-name="l" unicode="l" horiz-adv-x="325" 
d="M82 0v1442h162v-1442h-162z" />
    <glyph glyph-name="m" unicode="m" horiz-adv-x="1120" 
d="M823 1098q123 0 176.5 -57.5t53.5 -172.5v-868h-164v819q0 74 -28 105.5t-89 31.5q-45 0 -85 -38.5t-40 -112.5v-805h-162v819q0 73 -26.5 105t-81.5 32q-59 0 -96 -37t-37 -114v-805h-162v1073h119l8 -100q26 58 85 91.5t134 33.5q155 0 199 -107q31 49 84 78t112 29z
" />
    <glyph glyph-name="n" unicode="n" 
d="M418 1094q115 0 175 -58t60 -168v-868h-161v819q0 74 -25.5 105.5t-83.5 31.5q-53 0 -96 -38t-43 -113v-805h-162v1073h143l-6 -92q26 52 79.5 82.5t119.5 30.5z" />
    <glyph glyph-name="o" unicode="o" horiz-adv-x="681" 
d="M336 -20q-124 0 -196 75t-72 215v539q0 139 72 214t196 75h10q124 0 196 -75t72 -214v-539q0 -140 -72 -215t-196 -75h-10zM338 123h4q53 0 88 36.5t35 112.5v533q0 76 -35.5 113.5t-87.5 37.5h-2q-51 0 -86 -37.5t-35 -113.5v-533q0 -76 34.5 -112.5t84.5 -36.5z" />
    <glyph glyph-name="p" unicode="p" 
d="M82 -315v1388h139l-10 -102q49 123 211 123q105 0 168 -74t63 -205v-536q0 -136 -59 -207.5t-172 -71.5q-59 0 -105.5 25t-72.5 71v-411h-162zM244 293q0 -76 37 -113t90 -37q56 0 88.5 38.5t32.5 111.5v514q0 72 -33 110.5t-88 38.5q-53 0 -90 -36.5t-37 -112.5v-514z
" />
    <glyph glyph-name="q" unicode="q" horiz-adv-x="704" 
d="M61 244v606q0 107 64.5 175.5t167.5 68.5q79 0 133.5 -32t77.5 -91l-10 102h137v-1388h-162v411q-26 -46 -72.5 -71t-103.5 -25q-113 0 -172.5 65.5t-59.5 178.5zM223 293q0 -73 32.5 -111.5t86.5 -38.5q53 0 90 37t37 113v508q0 76 -37 112.5t-90 36.5
q-54 0 -86.5 -38.5t-32.5 -110.5v-508z" />
    <glyph glyph-name="r" unicode="r" horiz-adv-x="466" 
d="M426 1073h16v-153h-67q-53 0 -92 -37t-39 -107v-776h-162v1073h121l4 -131q23 62 80.5 96.5t138.5 34.5z" />
    <glyph glyph-name="s" unicode="s" horiz-adv-x="665" 
d="M330 -18q-115 0 -186.5 57t-71.5 182v158h149v-125q0 -133 109 -133q114 0 114 125v94q0 37 -20.5 65t-53.5 46.5t-73 35.5t-80 38.5t-73 48.5t-53.5 73t-20.5 105v116q0 64 22.5 111t62 72t82.5 36t93 11q48 0 90 -11t79.5 -36t59 -71.5t21.5 -111.5v-163h-148v153
q0 111 -102 111q-111 0 -111 -111v-90q0 -37 21 -65t54.5 -46t73.5 -34.5t80.5 -37t74 -47t54.5 -70.5t21 -101v-123q0 -140 -74 -201t-194 -61z" />
    <glyph glyph-name="t" unicode="t" horiz-adv-x="538" 
d="M502 928h-178v-662q0 -89 34.5 -105.5t143.5 11.5v-152l-105 -18q-235 -53 -235 193v733h-121v145h121v369h162v-369h178v-145z" />
    <glyph glyph-name="u" unicode="u" horiz-adv-x="704" 
d="M469 1073h162v-1073h-113l-10 115q-22 -62 -75 -98.5t-126 -36.5q-246 0 -246 243v850h162v-801q0 -73 32.5 -111t88.5 -38q52 0 88.5 36.5t36.5 112.5v801z" />
    <glyph glyph-name="v" unicode="v" horiz-adv-x="653" 
d="M205 0l-164 1073h156l129 -938h6l129 938h153l-161 -1073h-248z" />
    <glyph glyph-name="w" unicode="w" horiz-adv-x="1007" 
d="M815 1073h156l-164 -1073h-189l-112 778l-113 -778h-188l-164 1073h162l106 -895l129 895h133l131 -893z" />
    <glyph glyph-name="x" unicode="x" horiz-adv-x="638" 
d="M41 0l182 530l-182 543h149l125 -385l125 385h148l-182 -543l194 -530h-147l-138 381l-125 -381h-149z" />
    <glyph glyph-name="y" unicode="y" horiz-adv-x="688" 
d="M463 1073h162v-1126q0 -143 -75.5 -211t-205.5 -68q-132 0 -204 72t-72 207v22h161q2 -82 28 -125t89 -43t92 40.5t29 121.5v187q-24 -41 -71 -62.5t-103 -21.5q-107 0 -166 66.5t-59 178.5v762h161v-713q0 -73 32 -112t83 -39q48 0 83.5 37.5t35.5 113.5v713z" />
    <glyph glyph-name="z" unicode="z" horiz-adv-x="563" 
d="M41 0l4 158l297 760h-281v155h461l-4 -153l-297 -762l299 -2v-156h-479z" />
    <glyph glyph-name="braceleft" unicode="{" horiz-adv-x="464" 
d="M315 874q0 -71 -27.5 -126t-66.5 -84q39 -27 66.5 -82t27.5 -125v-588q0 -121 82 -121h43v-129h-45q-117 0 -177 68.5t-60 236.5v553q0 75 -27 98t-98 23v131q72 0 98.5 25t26.5 98v504q0 145 62.5 217t174.5 72h45v-132h-43q-34 0 -58 -30t-24 -90v-519z" />
    <glyph glyph-name="bar" unicode="|" horiz-adv-x="280" 
d="M82 -410v2048h119v-2048h-119z" />
    <glyph glyph-name="braceright" unicode="}" horiz-adv-x="464" 
d="M307 852q0 -73 26.5 -98t98.5 -25v-131q-71 0 -98 -23t-27 -98v-530q0 -328 -237 -328h-45v129h43q82 0 82 121v588q0 70 27.5 125t66.5 82q-39 29 -66.5 84t-27.5 126v519q0 60 -24 90t-58 30h-43v132h45q112 0 174.5 -72t62.5 -217v-504z" />
    <glyph glyph-name="asciitilde" unicode="~" horiz-adv-x="628" 
d="M168 565l-92 45q30 73 107.5 91.5t148.5 -23.5q1 0 12 -6t13.5 -6.5t12.5 -4.5t14 -3t12.5 1t13 4.5t11.5 11t12.5 17.5t10.5 25l93 -45q-30 -81 -98.5 -100t-147.5 26q-90 49 -123 -33z" />
    <glyph glyph-name="exclamdown" unicode="&#xa1;" horiz-adv-x="331" 
d="M82 1217h170v-181h-170v181zM117 911h100l31 -354v-780h-162v780z" />
    <glyph glyph-name="cent" unicode="&#xa2;" horiz-adv-x="702" 
d="M635 567h-162v117q0 76 -35.5 113t-87.5 37q-51 0 -86 -37t-35 -113v-403q0 -77 35.5 -114.5t87.5 -37.5q51 0 86 38t35 114v118h162v-135q0 -123 -61 -193.5t-177 -82.5v-156h-104v158q-105 14 -165 83.5t-60 190.5v436q0 120 60.5 190.5t164.5 84.5v158h104v-156
q116 -12 177 -84t61 -193v-133z" />
    <glyph glyph-name="sterling" unicode="&#xa3;" 
d="M657 911h-151v123q0 72 -34.5 108t-84.5 36q-49 0 -83 -36t-34 -108v-370h252v-148h-252v-354h387v-162h-616v162h78v354h-78v148h78v385q0 127 71 192.5t195 65.5q133 0 202.5 -67.5t69.5 -190.5v-138z" />
    <glyph glyph-name="currency" unicode="&#xa4;" horiz-adv-x="772" 
d="M74 98l-74 74l137 139q-39 61 -39 152v180q0 93 37 148l-135 135l74 73l127 -127q67 50 176 50h10q113 0 182 -52l129 129l74 -73l-139 -140q35 -56 35 -143v-180q0 -92 -37 -150l141 -141l-74 -74l-133 135q-73 -49 -178 -49h-10q-101 0 -172 47zM381 330h4
q52 0 86.5 36t34.5 113v150q0 76 -35.5 113.5t-87.5 37.5h-2q-51 0 -86 -37.5t-35 -113.5v-150q0 -77 34.5 -113t86.5 -36z" />
    <glyph glyph-name="yen" unicode="&#xa5;" horiz-adv-x="659" 
d="M629 1313l-213 -762h157v-113h-163v-94h163v-113h-163v-231h-150l-2 231h-166v113h164v94h-164v113h156l-215 762h149l150 -572l147 572h150z" />
    <glyph glyph-name="brokenbar" unicode="&#xa6;" horiz-adv-x="301" 
d="M82 829v809h137v-809h-137zM219 399v-809h-137v809h137z" />
    <glyph glyph-name="section" unicode="&#xa7;" horiz-adv-x="638" 
d="M590 1004h-154v112q0 43 -21 69.5t-43.5 33t-47.5 6.5q-18 0 -35.5 -4.5t-36 -15t-30 -34t-11.5 -55.5v-65q0 -37 21 -65.5t54 -47t73 -35t80.5 -37.5t73.5 -47.5t54 -70.5t21 -101v-121q0 -160 -109 -221q109 -73 109 -196v-95q0 -72 -23 -125t-62.5 -81t-85.5 -41
t-100 -13q-51 0 -96.5 12.5t-85 39t-63 74.5t-23.5 112v139h154v-106q0 -69 35 -101.5t79 -32.5q49 0 82 30t33 95v66q0 37 -21 65t-54.5 46.5t-73.5 35.5t-80.5 38.5t-74 49t-54.5 73.5t-21 106v118q0 150 127 205q-123 74 -123 215v101q0 64 23.5 111t64 71.5t84.5 35.5
t95 11q49 0 92.5 -11t84.5 -35.5t65 -71.5t24 -111v-131zM432 594q0 33 -11.5 56.5t-30.5 34.5t-36.5 15.5t-34.5 4.5q-42 0 -77 -24.5t-35 -86.5v-55q0 -71 35 -103.5t80 -32.5q48 0 79 30t31 97v64z" />
    <glyph glyph-name="dieresis" unicode="&#xa8;" horiz-adv-x="501" 
d="M39 1520v149h145v-149h-145zM272 1520v149h148v-149h-148z" />
    <glyph glyph-name="copyright" unicode="&#xa9;" horiz-adv-x="940" 
d="M471 80q-212 0 -317 133.5t-105 435.5q0 300 105.5 435t316.5 135q209 0 314.5 -135.5t105.5 -434.5q0 -302 -105.5 -435.5t-314.5 -133.5zM471 176q113 0 183 43t107.5 148t37.5 282q0 258 -79 365.5t-249 107.5q-171 0 -250.5 -107t-79.5 -366q0 -261 79 -367t251 -106
zM469 285q-83 0 -136.5 55.5t-53.5 157.5v315q0 101 53.5 156t136.5 55q93 0 144 -55.5t51 -155.5v-90h-101v80q0 63 -26.5 93t-67.5 30q-37 0 -63.5 -30.5t-26.5 -92.5v-295q0 -63 27 -94t65 -31q39 0 65.5 31t26.5 94v84h101v-94q0 -102 -51.5 -157.5t-143.5 -55.5z" />
    <glyph glyph-name="ordfeminine" unicode="&#xaa;" horiz-adv-x="335" 
d="M170 1462q51 0 88.5 -22.5t38.5 -75.5v-350h-74v33q-24 -41 -80 -41q-53 0 -78.5 27t-25.5 93v39q0 32 18 54t43.5 34t51 22.5t43.5 25.5t18 36v17q0 45 -41 45t-41 -45v-49h-76v55q0 53 35 77.5t80 24.5zM217 1126v117q-11 -7 -41.5 -21t-44.5 -27.5t-14 -33.5v-41
q0 -47 49 -47q51 0 51 53z" />
    <glyph glyph-name="guillemotleft" unicode="&#xab;" horiz-adv-x="845" 
d="M375 250l-342 336l342 338h170l-342 -338l342 -336h-170zM647 250l-342 336l342 338h170l-342 -338l342 -336h-170z" />
    <glyph glyph-name="logicalnot" unicode="&#xac;" horiz-adv-x="591" 
d="M569 635v-342h-135l-2 207h-409v135h546z" />
    <glyph glyph-name="registered" unicode="&#xae;" horiz-adv-x="940" 
d="M471 80q-212 0 -317 133.5t-105 435.5q0 300 105.5 435t316.5 135q209 0 314.5 -135.5t105.5 -434.5q0 -302 -105.5 -435.5t-314.5 -133.5zM471 176q113 0 183 43t107.5 148t37.5 282q0 258 -79 365.5t-249 107.5q-171 0 -250.5 -107t-79.5 -366q0 -261 79 -367t251 -106
zM317 301v719h177q155 0 155 -158v-141q0 -130 -94 -156l96 -264h-98l-94 256h-47v-256h-95zM412 643h73q37 0 52.5 20t15.5 70v121q0 51 -17 68.5t-51 17.5h-73v-297z" />
    <glyph glyph-name="macron" unicode="&#xaf;" horiz-adv-x="509" 
d="M90 1632h330v-114h-330v114z" />
    <glyph glyph-name="degree" unicode="&#xb0;" horiz-adv-x="446" 
d="M225 958q-91 0 -141.5 58t-50.5 207q0 81 14 135t41.5 82t59.5 38.5t77 10.5q43 0 74.5 -10.5t59 -38t41.5 -82t14 -135.5q0 -149 -50 -207t-139 -58zM225 1047q40 0 60 38t20 138q0 103 -19.5 139.5t-60.5 36.5q-43 0 -64.5 -36.5t-21.5 -139.5q0 -99 22 -137.5
t64 -38.5z" />
    <glyph glyph-name="plusminus" unicode="&#xb1;" horiz-adv-x="610" 
d="M373 635h205v-135h-205v-207h-135v207h-205v135h205v207h135v-207zM33 0v121h545v-121h-545z" />
    <glyph glyph-name="acute" unicode="&#xb4;" horiz-adv-x="307" 
d="M33 1505l106 240h144l-152 -240h-98z" />
    <glyph glyph-name="paragraph" unicode="&#xb6;" horiz-adv-x="632" 
d="M281 -2v588h-9q-48 0 -84.5 7.5t-74.5 30t-59 72t-21 123.5v381q0 242 239 242h312v-96h-74v-1346h-90v1348h-49v-1350h-90z" />
    <glyph glyph-name="periodcentered" unicode="&#xb7;" horiz-adv-x="251" 
d="M45 772h162v-160h-162v160z" />
    <glyph glyph-name="cedilla" unicode="&#xb8;" horiz-adv-x="325" 
d="M33 -156v70l47 98h90l-43 -96h35q131 0 131 -129q0 -54 -37.5 -93.5t-101.5 -39.5q-89 0 -99 2v86q10 -2 49 -2q93 0 93 47q0 31 -13 44t-57 13h-94z" />
    <glyph glyph-name="ordmasculine" unicode="&#xba;" horiz-adv-x="362" 
d="M160 1004q-50 0 -85.5 32t-35.5 88v211q0 56 35.5 89.5t85.5 33.5h22q50 0 85.5 -33.5t35.5 -89.5v-211q0 -56 -35.5 -88t-85.5 -32h-22zM170 1081h2q22 0 36.5 16t14.5 48v172q0 32 -14.5 47.5t-36.5 15.5h-2q-22 0 -36.5 -15.5t-14.5 -47.5v-172q0 -32 14.5 -48
t36.5 -16z" />
    <glyph glyph-name="guillemotright" unicode="&#xbb;" horiz-adv-x="839" 
d="M23 250l342 336l-342 338h170l342 -338l-342 -336h-170zM297 250l342 336l-342 338h170l342 -338l-342 -336h-170z" />
    <glyph glyph-name="questiondown" unicode="&#xbf;" horiz-adv-x="641" 
d="M248 1049v168h168v-168h-168zM319 -252q-134 0 -204 67t-70 191v207q0 81 15 141t37.5 91.5t49 62.5t49 56t37.5 71t15 108v168h168v-168q0 -65 -11 -115t-29 -81t-39.5 -56.5t-43.5 -48t-40 -47.5t-29 -63t-11 -88v-207q0 -68 30.5 -100.5t75.5 -32.5q43 0 75 36t32 103
v133h170v-170q0 -124 -71.5 -191t-205.5 -67z" />
    <glyph glyph-name="Agrave" unicode="&#xc0;" horiz-adv-x="688" 
d="M416 1518h-99l-151 237h143zM49 0l174 1442h262l166 -1442h-162l-34 309h-209l-33 -309h-164zM258 469h186l-86 813h-10z" />
    <glyph glyph-name="Aacute" unicode="&#xc1;" horiz-adv-x="688" 
d="M287 1505l106 240h144l-152 -240h-98zM49 0l174 1442h262l166 -1442h-162l-34 309h-209l-33 -309h-164zM258 469h186l-86 813h-10z" />
    <glyph glyph-name="Acircumflex" unicode="&#xc2;" horiz-adv-x="688" 
d="M354 1647l-98 -142h-100l127 240h143l127 -240h-100zM485 1442l166 -1442h-162l-34 309h-209l-33 -309h-164l174 1442h262zM258 469h186l-86 813h-10z" />
    <glyph glyph-name="Atilde" unicode="&#xc3;" horiz-adv-x="688" 
d="M227 1499l-90 45q30 73 106.5 91.5t147.5 -23.5q3 -1 8 -4q14 -7 22 -10.5t22 -5.5t23 3t19.5 18.5t18.5 37.5l94 -45q-30 -81 -99.5 -100t-148.5 26q-90 49 -123 -33zM49 0l174 1442h262l166 -1442h-162l-34 309h-209l-33 -309h-164zM258 469h186l-86 813h-10z" />
    <glyph glyph-name="Adieresis" unicode="&#xc4;" horiz-adv-x="688" 
d="M162 1520v149h147v-149h-147zM397 1520v149h146v-149h-146zM49 0l174 1442h262l166 -1442h-162l-34 309h-209l-33 -309h-164zM258 469h186l-86 813h-10z" />
    <glyph glyph-name="Aring" unicode="&#xc5;" horiz-adv-x="688" 
d="M354 1466q-61 0 -104 43t-43 105q0 60 43 103.5t104 43.5q60 0 104 -43.5t44 -103.5t-44 -104t-104 -44zM354 1544q31 0 51.5 19.5t20.5 50.5q0 29 -21.5 50.5t-50.5 21.5t-49 -21t-20 -51q0 -29 20 -49.5t49 -20.5zM49 0l174 1442h262l166 -1442h-162l-34 309h-209
l-33 -309h-164zM258 469h186l-86 813h-10z" />
    <glyph glyph-name="AE" unicode="&#xc6;" horiz-adv-x="946" 
d="M909 1300h-311v-469h262v-155h-262v-531h311v-145h-475v309h-188l-33 -309h-164l174 1442h686v-142zM258 469h176l2 831l-86 -2z" />
    <glyph glyph-name="Ccedilla" unicode="&#xc7;" 
d="M653 958h-166v203q0 78 -35.5 116t-91.5 38h-2q-54 0 -89.5 -38t-35.5 -116v-866q0 -79 35 -115.5t88 -36.5h4q56 0 91.5 36.5t35.5 115.5v248h166v-248q0 -152 -70 -227.5t-188 -83.5l-37 -80h35q131 0 131 -127q0 -54 -38.5 -94.5t-102.5 -40.5q-88 0 -96 2v86
q8 -2 47 -2q92 0 92 49q0 30 -13 42.5t-57 12.5h-92v70l39 84q-235 31 -235 309v866q0 152 77.5 225.5t208.5 73.5h11q132 0 210 -75.5t78 -235.5v-191z" />
    <glyph glyph-name="Egrave" unicode="&#xc8;" horiz-adv-x="593" 
d="M410 1518h-97l-153 237h145zM82 0l2 1442h473v-142h-311v-469h262v-155h-262v-531h311v-145h-475z" />
    <glyph glyph-name="Eacute" unicode="&#xc9;" horiz-adv-x="593" 
d="M227 1505l105 240h145l-153 -240h-97zM82 0l2 1442h473v-142h-311v-469h262v-155h-262v-531h311v-145h-475z" />
    <glyph glyph-name="Ecircumflex" unicode="&#xca;" horiz-adv-x="593" 
d="M315 1655l-98 -142h-98l125 240h143l127 -240h-100zM557 1300h-311v-469h262v-155h-262v-531h311v-145h-475l2 1442h473v-142z" />
    <glyph glyph-name="Edieresis" unicode="&#xcb;" horiz-adv-x="593" 
d="M131 1520v149h148v-149h-148zM367 1520v149h145v-149h-145zM82 0l2 1442h473v-142h-311v-469h262v-155h-262v-531h311v-145h-475z" />
    <glyph glyph-name="Igrave" unicode="&#xcc;" horiz-adv-x="305" 
d="M190 1518h-96l-147 258h149zM63 0v1442h162v-1442h-162z" />
    <glyph glyph-name="Iacute" unicode="&#xcd;" horiz-adv-x="348" 
d="M96 1505l105 240h145l-153 -240h-97zM82 0v1442h162v-1442h-162z" />
    <glyph glyph-name="Icircumflex" unicode="&#xce;" horiz-adv-x="372" 
d="M272 1769l95 -258h-91l-88 183l-88 -183h-90l94 258h168zM106 0v1442h160v-1442h-160z" />
    <glyph glyph-name="Idieresis" unicode="&#xcf;" horiz-adv-x="288" 
d="M-45 1520v159h145v-159h-145zM188 1520v159h146v-159h-146zM63 0v1442h162v-1442h-162z" />
    <glyph glyph-name="Eth" unicode="&#xd0;" horiz-adv-x="786" 
d="M436 1442q129 0 205 -75t76 -226v-840q0 -301 -281 -301h-309v580h-104v120h104v742h309zM555 301v840q0 74 -35 111.5t-84 37.5h-147v-590h186v-120h-186v-428h145q52 0 86.5 36t34.5 113z" />
    <glyph glyph-name="Ntilde" unicode="&#xd1;" horiz-adv-x="749" 
d="M358 1532q-89 48 -122 -33l-93 45q30 73 107 91.5t147 -23.5q2 -1 13 -6t14 -6.5t13 -5t14 -3t12.5 1t13.5 5t12 11t12.5 17.5t10.5 25l92 -45q-30 -81 -98.5 -100t-147.5 26zM506 1442h162v-1442h-162l-260 934v-934h-164v1442h164l260 -934v934z" />
    <glyph glyph-name="Ograve" unicode="&#xd2;" horiz-adv-x="702" 
d="M317 1518l-151 237h143l105 -237h-97zM336 -20q-132 0 -210.5 75t-78.5 236v860q0 160 78.5 234.5t210.5 74.5h10q132 0 209.5 -75.5t77.5 -235.5v-858q0 -162 -77.5 -236.5t-209.5 -74.5h-10zM338 137h4q47 0 81 38t34 116v870q0 77 -34 115.5t-81 38.5h-2
q-45 0 -79 -38.5t-34 -115.5v-870q0 -78 33.5 -116t77.5 -38z" />
    <glyph glyph-name="Oacute" unicode="&#xd3;" horiz-adv-x="702" 
d="M285 1505l106 240h144l-152 -240h-98zM336 -20q-132 0 -210.5 75t-78.5 236v860q0 160 78.5 234.5t210.5 74.5h10q132 0 209.5 -75.5t77.5 -235.5v-858q0 -162 -77.5 -236.5t-209.5 -74.5h-10zM338 137h4q47 0 81 38t34 116v870q0 77 -34 115.5t-81 38.5h-2
q-45 0 -79 -38.5t-34 -115.5v-870q0 -78 33.5 -116t77.5 -38z" />
    <glyph glyph-name="Ocircumflex" unicode="&#xd4;" 
d="M360 1647l-98 -142h-100l127 240h143l125 -240h-100zM365 1460q133 0 210.5 -75t77.5 -236v-858q0 -162 -77.5 -236.5t-210.5 -74.5h-11q-131 0 -208.5 75t-77.5 236v860q0 160 77.5 234.5t208.5 74.5h11zM477 291v870q0 77 -34.5 115.5t-82.5 38.5h-2q-45 0 -78.5 -38.5
t-33.5 -115.5v-870q0 -78 33 -116t77 -38h6q47 0 81 38t34 116z" />
    <glyph glyph-name="Otilde" unicode="&#xd5;" 
d="M229 1499l-90 45q30 73 106.5 91.5t147.5 -23.5l8 -4q18 -9 28.5 -12.5t26.5 -3.5t29 15t23 44l92 -45q-30 -81 -99.5 -100t-146.5 26q-17 9 -30.5 13.5t-32.5 5.5t-35 -12t-27 -40zM354 -20q-131 0 -208.5 75t-77.5 236v860q0 160 77.5 234.5t208.5 74.5h11
q133 0 210.5 -75t77.5 -236v-858q0 -162 -77.5 -236.5t-210.5 -74.5h-11zM356 137h6q47 0 81 38t34 116v870q0 77 -34.5 115.5t-82.5 38.5h-2q-45 0 -78.5 -38.5t-33.5 -115.5v-870q0 -78 33 -116t77 -38z" />
    <glyph glyph-name="Odieresis" unicode="&#xd6;" horiz-adv-x="702" 
d="M152 1520v149h145v-149h-145zM385 1520v149h145v-149h-145zM336 -20q-132 0 -210.5 75t-78.5 236v860q0 160 78.5 234.5t210.5 74.5h10q132 0 209.5 -75.5t77.5 -235.5v-858q0 -162 -77.5 -236.5t-209.5 -74.5h-10zM338 137h4q47 0 81 38t34 116v870q0 77 -34 115.5
t-81 38.5h-2q-45 0 -79 -38.5t-34 -115.5v-870q0 -78 33.5 -116t77.5 -38z" />
    <glyph glyph-name="multiply" unicode="&#xd7;" horiz-adv-x="645" 
d="M610 911l-200 -200l200 -201l-88 -84l-198 199l-201 -199l-86 86l201 199l-201 200l86 86l201 -200l200 200z" />
    <glyph glyph-name="Oslash" unicode="&#xd8;" 
d="M506 1434q147 -67 147 -285v-856q0 -161 -77.5 -236t-210.5 -75h-11q-36 0 -71 6l-43 -205l16 211q-188 53 -188 299v858q0 160 77.5 234.5t208.5 74.5h11q67 0 120 -18l35 164zM246 293q0 -62 24 -105l29 353l152 727q-33 47 -91 47l-2 -4q-46 0 -79 -36.5t-33 -113.5
v-868zM362 139q47 0 81 38t34 116v782l-18 -227l-144 -698q17 -11 41 -11h6z" />
    <glyph glyph-name="Ugrave" unicode="&#xd9;" horiz-adv-x="749" 
d="M442 1518h-94l-149 258h149zM369 -20q-139 0 -220 79.5t-81 243.5v1139h184v-1155q0 -76 34.5 -113t84.5 -37h6q51 0 86 37t35 113v1155h184v-1139q0 -164 -81.5 -243.5t-221.5 -79.5h-10z" />
    <glyph glyph-name="Uacute" unicode="&#xda;" horiz-adv-x="749" 
d="M301 1507l94 258h150l-148 -258h-96zM369 -20q-139 0 -220 79.5t-81 243.5v1139h184v-1155q0 -76 34.5 -113t84.5 -37h6q51 0 86 37t35 113v1155h184v-1139q0 -164 -81.5 -243.5t-221.5 -79.5h-10z" />
    <glyph glyph-name="Ucircumflex" unicode="&#xdb;" horiz-adv-x="731" 
d="M350 1688l-86 -183h-90l94 258h166l94 -258h-90zM479 1442h185v-1139q0 -164 -82 -243.5t-222 -79.5h-10q-139 0 -220 79.5t-81 243.5v1139h184v-1155q0 -76 34.5 -113t84.5 -37h6q51 0 86 37t35 113v1155z" />
    <glyph glyph-name="Udieresis" unicode="&#xdc;" horiz-adv-x="749" 
d="M190 1559v157h146v-157h-146zM424 1559v157h145v-157h-145zM369 -20q-139 0 -220 79.5t-81 243.5v1139h184v-1155q0 -76 34.5 -113t84.5 -37h6q51 0 86 37t35 113v1155h184v-1139q0 -164 -81.5 -243.5t-221.5 -79.5h-10z" />
    <glyph glyph-name="Yacute" unicode="&#xdd;" horiz-adv-x="712" 
d="M545 1745l-152 -240h-98l104 240h146zM512 1442h164l-232 -856v-586h-161l-9 586l-233 856h162l157 -629z" />
    <glyph glyph-name="Thorn" unicode="&#xde;" horiz-adv-x="694" 
d="M346 1198q128 0 204.5 -71t76.5 -207v-342q0 -142 -75 -210.5t-206 -68.5h-121v-444h-162v1732h162v-389h121zM465 604v301q0 76 -34.5 113t-84.5 37h-121v-602h119q121 0 121 151z" />
    <glyph glyph-name="germandbls" unicode="&#xdf;" horiz-adv-x="669" 
d="M504 743q50 -24 84.5 -74.5t34.5 -129.5v-277q0 -130 -75 -202t-216 -72h-58v145h60q59 0 93 36.5t34 106.5l2 248q0 142 -144 142h-45v145h43q25 0 47 6t43.5 21t34.5 44t13 70v228q0 76 -36 110.5t-87 34.5q-55 0 -89 -35.5t-34 -109.5v-1192h-152v1208q0 134 74.5 203
t198.5 69q136 0 208 -70.5t72 -201.5v-258q0 -64 -30.5 -113.5t-75.5 -81.5z" />
    <glyph glyph-name="agrave" unicode="&#xe0;" horiz-adv-x="690" 
d="M430 1190h-96l-152 237h144zM338 1098q58 0 105.5 -11t90 -35.5t66 -70.5t23.5 -111v-870h-154v70q-32 -42 -83.5 -66t-106.5 -24q-119 0 -177.5 63.5t-58.5 210.5v111q0 57 22.5 101t58 70.5t79 47t87 37.5t79 35t58 46.5t22.5 65.5v88q0 65 -27.5 89t-73.5 24
q-102 0 -102 -113v-139h-166v141q0 64 23 112.5t62 75.5t82 39.5t91 12.5zM453 252v313q-27 -19 -77 -43t-82.5 -40t-58.5 -47t-26 -70v-121q0 -125 123 -125q52 0 86.5 31t34.5 102z" />
    <glyph glyph-name="aacute" unicode="&#xe1;" horiz-adv-x="690" 
d="M530 1427l-151 -237h-98l106 237h143zM338 1098q58 0 105.5 -11t90 -35.5t66 -70.5t23.5 -111v-870h-154v70q-32 -42 -83.5 -66t-106.5 -24q-119 0 -177.5 63.5t-58.5 210.5v111q0 57 22.5 101t58 70.5t79 47t87 37.5t79 35t58 46.5t22.5 65.5v88q0 65 -27.5 89t-73.5 24
q-102 0 -102 -113v-139h-166v141q0 64 23 112.5t62 75.5t82 39.5t91 12.5zM453 252v313q-27 -19 -77 -43t-82.5 -40t-58.5 -47t-26 -70v-121q0 -125 123 -125q52 0 86.5 31t34.5 102z" />
    <glyph glyph-name="acircumflex" unicode="&#xe2;" horiz-adv-x="690" 
d="M360 1329l-98 -139h-100l127 237h143l125 -237h-100zM338 1098q58 0 105.5 -11t90 -35.5t66 -70.5t23.5 -111v-870h-154v70q-32 -42 -83.5 -66t-106.5 -24q-119 0 -177.5 63.5t-58.5 210.5v111q0 57 22.5 101t58 70.5t79 47t87 37.5t79 35t58 46.5t22.5 65.5v88
q0 65 -27.5 89t-73.5 24q-102 0 -102 -113v-139h-166v141q0 64 23 112.5t62 75.5t82 39.5t91 12.5zM453 252v313q-27 -19 -77 -43t-82.5 -40t-58.5 -47t-26 -70v-121q0 -125 123 -125q52 0 86.5 31t34.5 102z" />
    <glyph glyph-name="atilde" unicode="&#xe3;" horiz-adv-x="690" 
d="M342 1229q-89 49 -123 -35l-90 45q30 73 106.5 90.5t147.5 -24.5q44 -21 62 -19q33 4 51 60l92 -46q-30 -81 -98.5 -98.5t-147.5 27.5zM338 1098q58 0 105.5 -11t90 -35.5t66 -70.5t23.5 -111v-870h-154v70q-32 -42 -83.5 -66t-106.5 -24q-119 0 -177.5 63.5t-58.5 210.5
v111q0 57 22.5 101t58 70.5t79 47t87 37.5t79 35t58 46.5t22.5 65.5v88q0 65 -27.5 89t-73.5 24q-102 0 -102 -113v-139h-166v141q0 64 23 112.5t62 75.5t82 39.5t91 12.5zM453 252v313q-27 -19 -77 -43t-82.5 -40t-58.5 -47t-26 -70v-121q0 -125 123 -125q52 0 86.5 31
t34.5 102z" />
    <glyph glyph-name="adieresis" unicode="&#xe4;" horiz-adv-x="690" 
d="M311 1370v-160h-145v160h145zM545 1370v-160h-146v160h146zM338 1098q58 0 105.5 -11t90 -35.5t66 -70.5t23.5 -111v-870h-154v70q-32 -42 -83.5 -66t-106.5 -24q-119 0 -177.5 63.5t-58.5 210.5v111q0 57 22.5 101t58 70.5t79 47t87 37.5t79 35t58 46.5t22.5 65.5v88
q0 65 -27.5 89t-73.5 24q-102 0 -102 -113v-139h-166v141q0 64 23 112.5t62 75.5t82 39.5t91 12.5zM453 252v313q-27 -19 -77 -43t-82.5 -40t-58.5 -47t-26 -70v-121q0 -125 123 -125q52 0 86.5 31t34.5 102z" />
    <glyph glyph-name="aring" unicode="&#xe5;" horiz-adv-x="690" 
d="M356 1143q-60 0 -103.5 43.5t-43.5 103.5q0 61 43.5 104.5t103.5 43.5q62 0 105 -43t43 -105q0 -60 -43.5 -103.5t-104.5 -43.5zM356 1362q-29 0 -48 -20.5t-19 -51.5q0 -29 19 -48t48 -19q31 0 51.5 19t20.5 48q0 31 -20.5 51.5t-51.5 20.5zM338 1098q58 0 105.5 -11
t90 -35.5t66 -70.5t23.5 -111v-870h-154v70q-32 -42 -83.5 -66t-106.5 -24q-119 0 -177.5 63.5t-58.5 210.5v111q0 57 22.5 101t58 70.5t79 47t87 37.5t79 35t58 46.5t22.5 65.5v88q0 65 -27.5 89t-73.5 24q-102 0 -102 -113v-139h-166v141q0 64 23 112.5t62 75.5t82 39.5
t91 12.5zM453 252v313q-27 -19 -77 -43t-82.5 -40t-58.5 -47t-26 -70v-121q0 -125 123 -125q52 0 86.5 31t34.5 102z" />
    <glyph glyph-name="ae" unicode="&#xe6;" horiz-adv-x="1083" 
d="M1034 485h-395v-209q0 -76 35.5 -113.5t83.5 -37.5h2q46 0 79 37.5t33 113.5v19h162v-35q0 -136 -74 -207t-196 -71h-10q-84 0 -147.5 33t-96.5 98q-23 -60 -89 -95.5t-149 -35.5q-111 0 -167 64.5t-56 180.5v142q0 114 69 168.5t189 54.5h146v223q0 76 -34.5 116
t-80.5 40q-53 0 -83 -38.5t-30 -117.5v-33h-155v56q0 126 74 193t192 67q133 0 209 -76q77 80 207 80h10q122 0 197 -72t75 -207v-338zM756 956q-48 0 -82.5 -36.5t-34.5 -112.5v-215h233v215q0 76 -33.5 112.5t-80.5 36.5h-2zM453 252v233h-125q-48 0 -82.5 -37.5
t-34.5 -111.5v-84q0 -74 31.5 -113t81.5 -39q55 0 92 37.5t37 114.5z" />
    <glyph glyph-name="ccedilla" unicode="&#xe7;" horiz-adv-x="679" 
d="M612 651h-163v158q0 75 -33 110t-78 35q-43 0 -76 -35t-33 -110v-530q0 -79 33 -115.5t78 -36.5q43 0 76 36.5t33 115.5v153h163v-170q0 -130 -65.5 -200t-184.5 -78l-30 -68h35q131 0 131 -129q0 -54 -38.5 -93.5t-103.5 -39.5q-88 0 -96 2v86q5 3 12.5 2.5t20 -2.5
t14.5 -2q92 0 92 47q0 31 -12 44t-55 13h-94v70l34 76q-95 18 -149.5 86t-54.5 186v557q0 136 74.5 207.5t195.5 71.5q130 0 202 -73.5t72 -205.5v-168z" />
    <glyph glyph-name="egrave" unicode="&#xe8;" horiz-adv-x="681" 
d="M406 1190h-99l-151 237h145zM614 467h-385v-191q0 -77 31.5 -114t81.5 -37h2q49 0 79 37t30 114v27l161 2v-43q0 -137 -72.5 -209.5t-193.5 -72.5h-10q-121 0 -195.5 72t-74.5 208v563q0 135 74 205t196 70h10q119 0 192.5 -70.5t73.5 -204.5v-356zM342 954
q-50 0 -81.5 -36t-31.5 -113v-217h224v217q0 75 -33 112t-76 37h-2z" />
    <glyph glyph-name="eacute" unicode="&#xe9;" horiz-adv-x="681" 
d="M547 1427l-152 -237h-96l104 237h144zM614 467h-385v-191q0 -77 31.5 -114t81.5 -37h2q49 0 79 37t30 114v27l161 2v-43q0 -137 -72.5 -209.5t-193.5 -72.5h-10q-121 0 -195.5 72t-74.5 208v563q0 135 74 205t196 70h10q119 0 192.5 -70.5t73.5 -204.5v-356zM342 954
q-50 0 -81.5 -36t-31.5 -113v-217h224v217q0 75 -33 112t-76 37h-2z" />
    <glyph glyph-name="ecircumflex" unicode="&#xea;" horiz-adv-x="681" 
d="M346 1329l-98 -139h-101l125 237h146l125 -237h-101zM614 467h-385v-191q0 -77 31.5 -114t81.5 -37h2q49 0 79 37t30 114v27l161 2v-43q0 -137 -72.5 -209.5t-193.5 -72.5h-10q-121 0 -195.5 72t-74.5 208v563q0 135 74 205t196 70h10q119 0 192.5 -70.5t73.5 -204.5
v-356zM342 954q-50 0 -81.5 -36t-31.5 -113v-217h224v217q0 75 -33 112t-76 37h-2z" />
    <glyph glyph-name="edieresis" unicode="&#xeb;" horiz-adv-x="681" 
d="M295 1370v-160h-145v160h145zM530 1370v-160h-147v160h147zM614 467h-385v-191q0 -77 31.5 -114t81.5 -37h2q49 0 79 37t30 114v27l161 2v-43q0 -137 -72.5 -209.5t-193.5 -72.5h-10q-121 0 -195.5 72t-74.5 208v563q0 135 74 205t196 70h10q119 0 192.5 -70.5
t73.5 -204.5v-356zM342 954q-50 0 -81.5 -36t-31.5 -113v-217h224v217q0 75 -33 112t-76 37h-2z" />
    <glyph glyph-name="igrave" unicode="&#xec;" horiz-adv-x="313" 
d="M209 1190h-98l-152 237h143zM72 0v1073h161v-1073h-161z" />
    <glyph glyph-name="iacute" unicode="&#xed;" horiz-adv-x="323" 
d="M96 1190l105 237h145l-151 -237h-99zM84 0v1073h164v-1073h-164z" />
    <glyph glyph-name="icircumflex" unicode="&#xee;" horiz-adv-x="296" 
d="M223 1427l125 -237h-100l-96 139l-99 -139h-100l125 237h145zM70 0v1073h161v-1073h-161z" />
    <glyph glyph-name="idieresis" unicode="&#xef;" horiz-adv-x="317" 
d="M-31 1210v160h146v-160h-146zM203 1210v160h147v-160h-147zM78 0v1073h164v-1073h-164z" />
    <glyph glyph-name="eth" unicode="&#xf0;" horiz-adv-x="761" 
d="M737 1321v-109h-106v-1212h-127v104q-48 -124 -211 -124q-103 0 -167.5 67.5t-64.5 175.5v627q0 113 60 178.5t172 65.5q57 0 103.5 -25.5t72.5 -71.5v215h-125v109h125v121h162v-121h106zM469 272v529q0 76 -37 113.5t-90 37.5q-54 0 -86.5 -38.5t-32.5 -112.5v-529
q0 -72 32.5 -110.5t86.5 -38.5q53 0 90 36.5t37 112.5z" />
    <glyph glyph-name="ntilde" unicode="&#xf1;" 
d="M354 1229q-92 47 -125 -35l-88 45q30 73 105.5 90.5t146.5 -24.5q44 -21 62 -19q33 4 52 58q1 1 1 2l90 -46q-30 -81 -98.5 -98.5t-145.5 27.5zM434 1094q117 0 168 -58.5t51 -173.5v-862h-161v813q0 75 -26.5 107t-82.5 32q-53 0 -96 -38t-43 -113v-801h-162v1073h135
v-94q31 54 89 84.5t128 30.5z" />
    <glyph glyph-name="ograve" unicode="&#xf2;" horiz-adv-x="681" 
d="M315 1190l-153 237h145l105 -237h-97zM336 -20q-124 0 -196 75t-72 215v539q0 139 72 214t196 75h10q124 0 196 -75t72 -214v-539q0 -140 -72 -215t-196 -75h-10zM338 123h4q53 0 88 36.5t35 112.5v533q0 76 -35.5 113.5t-87.5 37.5h-2q-51 0 -86 -37.5t-35 -113.5v-533
q0 -76 34.5 -112.5t84.5 -36.5z" />
    <glyph glyph-name="oacute" unicode="&#xf3;" horiz-adv-x="681" 
d="M272 1190l107 237h143l-151 -237h-99zM336 -20q-124 0 -196 75t-72 215v539q0 139 72 214t196 75h10q124 0 196 -75t72 -214v-539q0 -140 -72 -215t-196 -75h-10zM338 123h4q53 0 88 36.5t35 112.5v533q0 76 -35.5 113.5t-87.5 37.5h-2q-51 0 -86 -37.5t-35 -113.5v-533
q0 -76 34.5 -112.5t84.5 -36.5z" />
    <glyph glyph-name="ocircumflex" unicode="&#xf4;" horiz-adv-x="681" 
d="M340 1329l-98 -139h-101l127 237h144l125 -237h-99zM346 1098q124 0 196 -75t72 -214v-539q0 -140 -72 -215t-196 -75h-10q-124 0 -196 75t-72 215v539q0 139 72 214t196 75h10zM465 272v533q0 76 -35.5 113.5t-87.5 37.5h-2q-51 0 -86 -37.5t-35 -113.5v-533
q0 -76 34.5 -112.5t84.5 -36.5h4q53 0 88 36.5t35 112.5z" />
    <glyph glyph-name="otilde" unicode="&#xf5;" horiz-adv-x="681" 
d="M211 1194l-90 45q30 73 106.5 90.5t147.5 -24.5q43 -21 60 -19q33 3 52 60l93 -46q-30 -81 -98.5 -98.5t-147.5 27.5q-89 49 -123 -35zM336 -20q-124 0 -196 75t-72 215v539q0 139 72 214t196 75h10q124 0 196 -75t72 -214v-539q0 -140 -72 -215t-196 -75h-10zM338 123h4
q53 0 88 36.5t35 112.5v533q0 76 -35.5 113.5t-87.5 37.5h-2q-51 0 -86 -37.5t-35 -113.5v-533q0 -76 34.5 -112.5t84.5 -36.5z" />
    <glyph glyph-name="odieresis" unicode="&#xf6;" horiz-adv-x="681" 
d="M152 1192v160h145v-160h-145zM385 1192v160h145v-160h-145zM336 -20q-124 0 -196 75t-72 215v539q0 139 72 214t196 75h10q124 0 196 -75t72 -214v-539q0 -140 -72 -215t-196 -75h-10zM338 123h4q53 0 88 36.5t35 112.5v533q0 76 -35.5 113.5t-87.5 37.5h-2
q-51 0 -86 -37.5t-35 -113.5v-533q0 -76 34.5 -112.5t84.5 -36.5z" />
    <glyph glyph-name="divide" unicode="&#xf7;" horiz-adv-x="735" 
d="M285 952h159v-157h-159v157zM23 592h690v-121h-690v121zM285 258h159v-158h-159v158z" />
    <glyph glyph-name="oslash" unicode="&#xf8;" horiz-adv-x="681" 
d="M442 1083q81 -25 126.5 -95.5t45.5 -178.5v-539q0 -140 -72 -215t-196 -75h-10q-31 0 -43 2l-27 -189h-61l26 203q-77 27 -120 97t-43 177v539q0 139 72 214t196 75h10q23 0 35 -2l22 172h64zM219 272q0 -72 35 -112l106 794q-6 2 -18 2h-2q-51 0 -86 -37.5t-35 -113.5
v-533zM465 272v533q0 81 -45 123l-109 -803q8 -2 27 -2h4q53 0 88 36.5t35 112.5z" />
    <glyph glyph-name="ugrave" unicode="&#xf9;" horiz-adv-x="704" 
d="M387 1190l-133 96l-74 141l150 -96zM469 1073h162v-1073h-129v100q-25 -54 -76.5 -85t-118.5 -31q-246 0 -246 245v844h162v-794q0 -74 32.5 -113t88.5 -39q51 0 88 38t37 114v794z" />
    <glyph glyph-name="uacute" unicode="&#xfa;" horiz-adv-x="704" 
d="M522 1427l-151 -237h-99l107 237h143zM469 1073h162v-1073h-129v100q-25 -54 -76.5 -85t-118.5 -31q-246 0 -246 245v844h162v-794q0 -74 32.5 -113t88.5 -39q51 0 88 38t37 114v794z" />
    <glyph glyph-name="ucircumflex" unicode="&#xfb;" horiz-adv-x="704" 
d="M348 1352l-90 -168h-88l98 243h160l98 -243h-88zM469 1073h162v-1073h-129v100q-25 -54 -76.5 -85t-118.5 -31q-246 0 -246 245v844h162v-794q0 -74 32.5 -113t88.5 -39q51 0 88 38t37 114v794z" />
    <glyph glyph-name="udieresis" unicode="&#xfc;" horiz-adv-x="704" 
d="M301 1352v-160h-145v160h145zM535 1352v-160h-146v160h146zM469 1073h162v-1073h-129v100q-25 -54 -76.5 -85t-118.5 -31q-246 0 -246 245v844h162v-794q0 -74 32.5 -113t88.5 -39q51 0 88 38t37 114v794z" />
    <glyph glyph-name="yacute" unicode="&#xfd;" horiz-adv-x="688" 
d="M535 1427l-152 -237h-98l106 237h144zM463 1073h162v-1116q0 -141 -76 -210t-205 -69q-131 0 -203.5 73.5t-72.5 205.5v20h161q1 -78 32 -117.5t85 -39.5q49 0 83 37.5t34 113.5v191q-23 -45 -69 -70.5t-101 -25.5q-107 0 -166 66.5t-59 178.5v762h161v-713
q0 -73 32 -112t83 -39q48 0 83.5 37.5t35.5 113.5v713z" />
    <glyph glyph-name="thorn" unicode="&#xfe;" horiz-adv-x="712" 
d="M365 1198q128 0 204 -70.5t76 -207.5v-342q0 -142 -74.5 -210.5t-205.5 -68.5h-121v-299h-162v1442h162v-244h121zM483 604v301q0 76 -34 113t-84 37h-121v-602h118q121 0 121 151z" />
    <glyph glyph-name="ydieresis" unicode="&#xff;" horiz-adv-x="688" 
d="M299 1362v-160h-145v160h145zM532 1362v-160h-145v160h145zM463 1073h162v-1116q0 -141 -76 -210t-205 -69q-131 0 -203.5 73.5t-72.5 205.5v20h161q1 -78 32 -117.5t85 -39.5q49 0 83 37.5t34 113.5v191q-23 -45 -69 -70.5t-101 -25.5q-107 0 -166 66.5t-59 178.5v762
h161v-713q0 -73 32 -112t83 -39q48 0 83.5 37.5t35.5 113.5v713z" />
    <glyph glyph-name="Amacron" unicode="&#x100;" horiz-adv-x="704" 
d="M518 1632v-114h-328v114h328zM506 0l-33 287h-229l-31 -287h-164l176 1442h258l185 -1442h-162zM260 442h195l-97 838h-10z" />
    <glyph glyph-name="amacron" unicode="&#x101;" horiz-adv-x="690" 
d="M514 1327v-117h-330v117h330zM338 1098q58 0 105.5 -11t90 -35.5t66 -70.5t23.5 -111v-870h-154v70q-32 -42 -83.5 -66t-106.5 -24q-119 0 -177.5 63.5t-58.5 210.5v111q0 57 22.5 101t58 70.5t79 47t87 37.5t79 35t58 46.5t22.5 65.5v88q0 65 -27.5 89t-73.5 24
q-102 0 -102 -113v-139h-166v141q0 64 23 112.5t62 75.5t82 39.5t91 12.5zM453 252v313q-27 -19 -77 -43t-82.5 -40t-58.5 -47t-26 -70v-121q0 -125 123 -125q52 0 86.5 31t34.5 102z" />
    <glyph glyph-name="Abreve" unicode="&#x102;" horiz-adv-x="704" 
d="M354 1501q-99 0 -157 60t-54 172h115q-3 -63 19 -96t77 -33q107 0 97 129h114q4 -112 -54 -172t-157 -60zM506 0l-33 287h-229l-31 -287h-164l176 1442h258l185 -1442h-162zM260 442h195l-97 838h-10z" />
    <glyph glyph-name="abreve" unicode="&#x103;" horiz-adv-x="690" 
d="M358 1190q-99 0 -157 59.5t-54 171.5h115q-3 -63 19 -95t77 -32q107 0 97 127h114q4 -112 -54 -171.5t-157 -59.5zM338 1098q58 0 105.5 -11t90 -35.5t66 -70.5t23.5 -111v-870h-154v70q-32 -42 -83.5 -66t-106.5 -24q-119 0 -177.5 63.5t-58.5 210.5v111q0 57 22.5 101
t58 70.5t79 47t87 37.5t79 35t58 46.5t22.5 65.5v88q0 65 -27.5 89t-73.5 24q-102 0 -102 -113v-139h-166v141q0 64 23 112.5t62 75.5t82 39.5t91 12.5zM453 252v313q-27 -19 -77 -43t-82.5 -40t-58.5 -47t-26 -70v-121q0 -125 123 -125q52 0 86.5 31t34.5 102z" />
    <glyph glyph-name="Aogonek" unicode="&#x104;" horiz-adv-x="704" 
d="M537 -143q0 -14 16 -22.5t42.5 -3.5t51.5 28v-113q-40 -26 -98.5 -27.5t-105 31t-46.5 92.5q0 47 24.5 80.5t84.5 77.5l-33 287h-229l-31 -287h-164l176 1442h258l185 -1442q-12 -10 -30.5 -24.5t-26.5 -21t-21 -17t-18 -15.5l-13 -13t-10.5 -13l-6 -12t-4.5 -13t-1 -14z
M260 442h195l-97 838h-10z" />
    <glyph glyph-name="aogonek" unicode="&#x105;" horiz-adv-x="696" 
d="M629 0q-12 -9 -28.5 -22t-24.5 -19.5t-20.5 -16t-18 -14.5t-13.5 -12.5t-11 -12t-7.5 -10.5t-6 -11.5t-2.5 -11.5t-1 -13q0 -14 16.5 -22.5t43.5 -3.5t52 28v-113q-40 -26 -99 -27.5t-106 31t-47 92.5q0 46 26.5 79t90.5 79v70q-32 -42 -83.5 -66t-106.5 -24
q-119 0 -176.5 63.5t-57.5 210.5v111q0 57 22.5 101t58 70.5t78.5 47t86 37.5t78.5 35t58 46.5t22.5 65.5v88q0 65 -27 89t-74 24q-102 0 -102 -113v-139h-166v141q0 64 23 112.5t62 75.5t83 39.5t92 12.5q57 0 104.5 -11t89.5 -35.5t66 -70.5t25 -111v-870zM459 252v313
q-28 -19 -101 -52t-109 -65t-36 -83v-121q0 -125 123 -125q53 0 88 31t35 102z" />
    <glyph glyph-name="Cacute" unicode="&#x106;" 
d="M279 1505l104 240h145l-151 -240h-98zM354 -20q-132 0 -209 74.5t-77 236.5v870q0 152 77.5 225.5t208.5 73.5h11q132 0 210 -75.5t78 -235.5v-191h-166v203q0 78 -35.5 116t-91.5 38h-2q-54 0 -89.5 -38t-35.5 -116v-870q0 -79 35 -115.5t88 -36.5h4q56 0 91.5 36.5
t35.5 115.5v252h166v-252q0 -162 -78 -236.5t-210 -74.5h-11z" />
    <glyph glyph-name="cacute" unicode="&#x107;" horiz-adv-x="679" 
d="M262 1190l105 237h143l-152 -237h-96zM338 -20q-122 0 -196 69.5t-74 208.5v561q0 136 74.5 207.5t195.5 71.5q130 0 202 -73.5t72 -205.5v-168h-163v158q0 75 -33 110t-78 35q-43 0 -76 -35t-33 -110v-537q0 -78 33 -113.5t78 -35.5q44 0 76.5 36t32.5 113v160h163v-174
q0 -136 -72 -207t-202 -71z" />
    <glyph glyph-name="Cdotaccent" unicode="&#x10a;" 
d="M285 1520v149h145v-149h-145zM354 -20q-132 0 -209 74.5t-77 236.5v870q0 152 77.5 225.5t208.5 73.5h11q132 0 210 -75.5t78 -235.5v-191h-166v203q0 78 -35.5 116t-91.5 38h-2q-54 0 -89.5 -38t-35.5 -116v-870q0 -79 35 -115.5t88 -36.5h4q56 0 91.5 36.5t35.5 115.5
v252h166v-252q0 -162 -78 -236.5t-210 -74.5h-11z" />
    <glyph glyph-name="cdotaccent" unicode="&#x10b;" horiz-adv-x="679" 
d="M260 1192v160h148v-160h-148zM338 -20q-122 0 -196 69.5t-74 208.5v561q0 136 74.5 207.5t195.5 71.5q130 0 202 -73.5t72 -205.5v-168h-163v158q0 75 -33 110t-78 35q-43 0 -76 -35t-33 -110v-537q0 -77 33 -112t78 -35q44 0 76.5 35t32.5 112v160h163v-174
q0 -136 -72 -207t-202 -71z" />
    <glyph glyph-name="Ccaron" unicode="&#x10c;" 
d="M285 1505l-125 240h100l98 -141l97 141h100l-125 -240h-145zM653 958h-166v203q0 78 -35.5 116t-91.5 38h-2q-54 0 -89.5 -38t-35.5 -116v-870q0 -79 35 -115.5t88 -36.5h4q56 0 91.5 36.5t35.5 115.5v252h166v-252q0 -162 -78 -236.5t-210 -74.5h-11q-132 0 -209 74.5
t-77 236.5v870q0 152 77.5 225.5t208.5 73.5h11q132 0 210 -75.5t78 -235.5v-191z" />
    <glyph glyph-name="ccaron" unicode="&#x10d;" horiz-adv-x="679" 
d="M266 1190l-125 237h99l98 -139l98 139h101l-127 -237h-144zM612 651h-163v158q0 75 -33 110t-78 35q-43 0 -76 -35t-33 -110v-537q0 -77 33 -112t78 -35q44 0 76.5 35t32.5 112v160h163v-174q0 -136 -72 -207t-202 -71q-122 0 -196 69.5t-74 208.5v561q0 136 74.5 207.5
t195.5 71.5q130 0 202 -73.5t72 -205.5v-168z" />
    <glyph glyph-name="Dcaron" unicode="&#x10e;" horiz-adv-x="710" 
d="M283 1505l-125 240h98l98 -141l99 141h100l-127 -240h-143zM362 1442q128 0 204.5 -75t76.5 -226v-840q0 -301 -281 -301h-280v1442h280zM479 303v838q0 75 -34.5 112t-84.5 37h-116v-1136h114q53 0 87 35.5t34 113.5z" />
    <glyph glyph-name="dcaron" unicode="&#x10f;" horiz-adv-x="854" 
d="M469 999v443h162v-1442h-127v104q-48 -124 -211 -124q-106 0 -169 75t-63 217v521q0 152 55.5 228.5t176.5 76.5q120 0 176 -99zM670 1442h147v-180l-53 -119h-70l45 119h-69v180zM469 272v535q0 76 -37 112.5t-90 36.5t-86 -43t-33 -118v-523q0 -71 32.5 -109t86.5 -38
q53 0 90 35.5t37 111.5z" />
    <glyph glyph-name="Dcroat" unicode="&#x110;" horiz-adv-x="786" 
d="M436 1442q129 0 205 -75t76 -226v-840q0 -301 -281 -301h-309v580h-104v120h104v742h309zM555 301v840q0 74 -35 111.5t-84 37.5h-147v-590h186v-120h-186v-428h145q52 0 86.5 36t34.5 113z" />
    <glyph glyph-name="dcroat" unicode="&#x111;" horiz-adv-x="811" 
d="M739 1321v-109h-106v-1212h-127v104q-48 -124 -211 -124q-103 0 -167.5 67.5t-64.5 175.5v627q0 113 60 178.5t172 65.5q58 0 104.5 -25.5t71.5 -71.5v215h-219v109h219v121h162v-121h106zM471 272v529q0 76 -37 113.5t-90 37.5q-54 0 -86.5 -38.5t-32.5 -112.5v-529
q0 -72 32.5 -110.5t86.5 -38.5q53 0 90 36.5t37 112.5z" />
    <glyph glyph-name="Emacron" unicode="&#x112;" horiz-adv-x="593" 
d="M160 1630h329v-114h-329v114zM82 0l2 1442h473v-160h-311v-448h262v-154h-262v-518h311v-162h-475z" />
    <glyph glyph-name="emacron" unicode="&#x113;" horiz-adv-x="681" 
d="M504 1327v-117h-328v117h328zM614 467h-385v-191q0 -77 31.5 -114t81.5 -37h2q49 0 79 37t30 114v27l161 2v-43q0 -137 -72.5 -209.5t-193.5 -72.5h-10q-121 0 -195.5 72t-74.5 208v563q0 135 74 205t196 70h10q119 0 192.5 -70.5t73.5 -204.5v-356zM342 954
q-50 0 -81.5 -36t-31.5 -113v-217h224v217q0 75 -33 112t-76 37h-2z" />
    <glyph glyph-name="Edotaccent" unicode="&#x116;" horiz-adv-x="593" 
d="M246 1520v149h147v-149h-147zM82 0l2 1442h473v-160h-311v-448h262v-154h-262v-516h311v-164h-475z" />
    <glyph glyph-name="edotaccent" unicode="&#x117;" horiz-adv-x="681" 
d="M410 1352v-160h-146v160h146zM614 467h-385v-191q0 -77 31.5 -114t81.5 -37h2q49 0 79 37t30 114v27l161 2v-43q0 -137 -72.5 -209.5t-193.5 -72.5h-10q-121 0 -195.5 72t-74.5 208v563q0 135 74 205t196 70h10q119 0 192.5 -70.5t73.5 -204.5v-356zM342 954
q-50 0 -81.5 -36t-31.5 -113v-217h224v217q0 75 -33 112t-76 37h-2z" />
    <glyph glyph-name="Eogonek" unicode="&#x118;" horiz-adv-x="593" 
d="M557 1282h-311v-448h262v-154h-262v-518h311v-162h-55q-12 -9 -28.5 -22t-24.5 -19.5t-20.5 -16t-18 -14.5t-13.5 -12.5t-11 -12t-7.5 -10.5t-6 -11.5t-2.5 -11.5t-1 -13q0 -14 16.5 -22.5t43.5 -3.5t52 28v-113q-40 -26 -99 -27.5t-106 31t-47 92.5q0 46 26.5 79
t90.5 79h-264l2 1442h473v-160z" />
    <glyph glyph-name="eogonek" unicode="&#x119;" horiz-adv-x="681" 
d="M614 467h-385v-191q0 -77 31.5 -114t81.5 -37h2q49 0 79 37t30 114v27l161 2v-43q0 -109 -47 -177.5t-129 -92.5q-88 -71 -101 -85q-20 -23 -20 -50q0 -14 16 -22.5t43 -3.5t52 28v-113q-40 -26 -98.5 -27.5t-105 31t-46.5 92.5q0 42 23 74t73 70q-95 18 -150.5 87.5
t-55.5 186.5v563q0 135 74 205t196 70h10q119 0 192.5 -70.5t73.5 -204.5v-356zM342 954q-50 0 -81.5 -36t-31.5 -113v-217h224v217q0 75 -33 112t-76 37h-2z" />
    <glyph glyph-name="Ecaron" unicode="&#x11a;" horiz-adv-x="593" 
d="M244 1505l-125 240h100l98 -141l97 141h100l-125 -240h-145zM557 1282h-311v-448h262v-154h-262v-516h311v-164h-475l2 1442h473v-160z" />
    <glyph glyph-name="ecaron" unicode="&#x11b;" horiz-adv-x="681" 
d="M274 1190l-124 237h100l98 -139l96 139h101l-125 -237h-146zM614 467h-385v-191q0 -77 31.5 -114t81.5 -37h2q49 0 79 37t30 114v27l161 2v-43q0 -137 -72.5 -209.5t-193.5 -72.5h-10q-121 0 -195.5 72t-74.5 208v563q0 135 74 205t196 70h10q119 0 192.5 -70.5
t73.5 -204.5v-356zM342 954q-50 0 -81.5 -36t-31.5 -113v-217h224v217q0 75 -33 112t-76 37h-2z" />
    <glyph glyph-name="Gbreve" unicode="&#x11e;" 
d="M356 1501q-97 0 -155.5 60t-55.5 172h117q-10 -129 94 -129q105 0 99 129h114q3 -112 -55.5 -172t-157.5 -60zM653 961h-166v200q0 78 -35.5 116t-91.5 38h-2q-52 0 -87 -38t-35 -116v-870q0 -79 34.5 -115.5t85.5 -36.5h6q138 0 138 152v325h-144v162h297v-475
q0 -163 -78 -243t-210 -80h-11q-129 0 -207.5 80t-78.5 243v846q0 160 78 235.5t208 75.5h11q133 0 210.5 -75t77.5 -236v-188z" />
    <glyph glyph-name="gbreve" unicode="&#x11f;" horiz-adv-x="690" 
d="M352 1190q-99 0 -157 59.5t-54 171.5h115q-3 -63 19 -95t77 -32q107 0 97 127h114q4 -112 -54 -171.5t-157 -59.5zM487 1073h131v-1116q0 -139 -74 -209t-204 -70q-138 0 -208.5 72.5t-70.5 206.5v20h162q0 -80 26 -123.5t91 -43.5q117 0 117 161v197q-23 -47 -69 -74.5
t-99 -27.5q-112 0 -170 65.5t-58 179.5v543q0 115 57.5 179.5t170.5 64.5q64 0 113 -35t69 -94zM340 211q43 0 80 37.5t37 111.5v445q0 76 -33 112.5t-84 36.5q-56 0 -86.5 -37t-30.5 -112v-445q0 -74 31 -111.5t86 -37.5z" />
    <glyph glyph-name="Gdotaccent" unicode="&#x120;" 
d="M434 1669v-149h-145v149h145zM653 961h-166v200q0 78 -35.5 116t-91.5 38h-2q-52 0 -87 -38t-35 -116v-870q0 -79 34.5 -115.5t85.5 -36.5h6q138 0 138 152v325h-144v162h297v-475q0 -163 -78 -243t-210 -80h-11q-129 0 -207.5 80t-78.5 243v846q0 160 78 235.5t208 75.5
h11q133 0 210.5 -75t77.5 -236v-188z" />
    <glyph glyph-name="gdotaccent" unicode="&#x121;" horiz-adv-x="690" 
d="M418 1352v-160h-146v160h146zM487 1073h131v-1116q0 -139 -74 -209t-204 -70q-138 0 -208.5 72.5t-70.5 206.5v20h162q0 -80 26 -123.5t91 -43.5q117 0 117 161v197q-23 -47 -69 -74.5t-99 -27.5q-112 0 -170 65.5t-58 179.5v543q0 115 57.5 179.5t170.5 64.5
q64 0 113 -35t69 -94zM340 211q43 0 80 37.5t37 111.5v445q0 76 -33 112.5t-84 36.5q-56 0 -86.5 -37t-30.5 -112v-445q0 -74 31 -111.5t86 -37.5z" />
    <glyph glyph-name="uni0122" unicode="&#x122;" 
d="M653 961h-166v200q0 78 -35.5 116t-91.5 38h-2q-52 0 -87 -38t-35 -116v-870q0 -79 34.5 -115.5t85.5 -36.5h6q138 0 138 152v325h-144v162h297v-475q0 -163 -78 -243t-210 -80h-11q-129 0 -207.5 80t-78.5 243v846q0 160 78 235.5t208 75.5h11q133 0 210.5 -75
t77.5 -236v-188zM287 -250v168h149v-168l-55 -131h-68l43 131h-69z" />
    <glyph glyph-name="uni0123" unicode="&#x123;" horiz-adv-x="690" 
d="M420 1425v-180h-148v180l54 119h69l-45 -119h70zM487 1073h131v-1116q0 -139 -74 -209t-204 -70q-138 0 -208.5 72.5t-70.5 206.5v20h162q0 -80 26 -123.5t91 -43.5q117 0 117 161v197q-23 -47 -69 -74.5t-99 -27.5q-112 0 -170 65.5t-58 179.5v543q0 115 57.5 179.5
t170.5 64.5q64 0 113 -35t69 -94zM340 211q43 0 80 37.5t37 111.5v445q0 76 -33 112.5t-84 36.5q-56 0 -86.5 -37t-30.5 -112v-445q0 -74 31 -111.5t86 -37.5z" />
    <glyph glyph-name="Hbar" unicode="&#x126;" horiz-adv-x="702" 
d="M721 1159v-125h-84v-1034h-162v655h-248v-655h-161v1034h-84v125h84v283h161v-283h248v283h162v-283h84zM475 815v219h-248v-219h248z" />
    <glyph glyph-name="hbar" unicode="&#x127;" horiz-adv-x="702" 
d="M430 1094q101 0 153 -63t52 -177v-854h-162v807q0 74 -28 111.5t-80 37.5q-56 0 -97 -37.5t-41 -113.5v-805h-164v1210h-77v113h77v119h164v-119h222v-113h-222v-219q31 47 85.5 75t117.5 28z" />
    <glyph glyph-name="Imacron" unicode="&#x12a;" horiz-adv-x="274" 
d="M-27 1632h330v-114h-330v114zM59 0v1442h160v-1442h-160z" />
    <glyph glyph-name="imacron" unicode="&#x12b;" horiz-adv-x="296" 
d="M-16 1337h329v-114h-329v114zM68 0v1073h161v-1073h-161z" />
    <glyph glyph-name="Iogonek" unicode="&#x12e;" horiz-adv-x="307" 
d="M225 0q-95 -74 -110 -91q-21 -24 -21 -52q0 -14 16 -22.5t43 -3.5t52 28v-113q-40 -26 -98.5 -27.5t-105 31t-46.5 92.5q0 46 26 79.5t89 78.5h-7v1442h162v-1442z" />
    <glyph glyph-name="iogonek" unicode="&#x12f;" horiz-adv-x="313" 
d="M70 1442h161v-221h-161v221zM70 0v1073h161v-1073q-12 -10 -30.5 -24.5t-26.5 -21t-21 -17t-18 -15.5l-13 -13t-10.5 -13l-6 -12t-4.5 -13t-1 -14q0 -14 16 -22.5t43 -3.5t52 28v-113q-40 -26 -98.5 -27.5t-105 31t-46.5 92.5q0 47 24.5 80.5t84.5 77.5z" />
    <glyph glyph-name="Idotaccent" unicode="&#x130;" horiz-adv-x="288" 
d="M72 1520v149h147v-149h-147zM63 0v1442h162v-1442h-162z" />
    <glyph glyph-name="dotlessi" unicode="&#x131;" horiz-adv-x="325" 
d="M82 0v1073h162v-1073h-162z" />
    <glyph glyph-name="uni0136" unicode="&#x136;" horiz-adv-x="679" 
d="M82 0v1442h162v-576l10 -8l209 584h178l-254 -684l256 -758h-162l-192 551l-47 -135l2 -416h-162zM276 -250v168h148v-168l-53 -131h-70l45 131h-70z" />
    <glyph glyph-name="uni0137" unicode="&#x137;" horiz-adv-x="661" 
d="M82 0v1442h162v-762h4l207 393h163l-233 -444l240 -629h-166l-185 461l-36 -62l2 -399h-158zM307 -381l43 131h-69v168h149v-168l-55 -131h-68z" />
    <glyph glyph-name="Lacute" unicode="&#x139;" horiz-adv-x="528" 
d="M125 1505l104 240h146l-152 -240h-98zM63 0v1442h164v-1278h273v-164h-437z" />
    <glyph glyph-name="lacute" unicode="&#x13a;" horiz-adv-x="331" 
d="M88 1505l105 240h145l-152 -240h-98zM84 0v1442h162v-1442h-162z" />
    <glyph glyph-name="uni013B" unicode="&#x13b;" horiz-adv-x="555" 
d="M82 0v1442h162v-1278h272v-164h-434zM217 -250v168h150v-168l-56 -131h-67l43 131h-70z" />
    <glyph glyph-name="uni013C" unicode="&#x13c;" horiz-adv-x="327" 
d="M84 0v1442h162v-1442h-162zM92 -287l10 160h115v-78l-22 -94l-60 -45l25 57h-68z" />
    <glyph glyph-name="Lcaron" unicode="&#x13d;" horiz-adv-x="555" 
d="M227 1505l-125 240h101l98 -141l96 141h101l-125 -240h-146zM244 164h272v-164h-434v1442h162v-1278z" />
    <glyph glyph-name="lcaron" unicode="&#x13e;" horiz-adv-x="307" 
d="M82 1505l-127 240h100l99 -141l98 141h100l-127 -240h-143zM74 0v1442h162v-1442h-162z" />
    <glyph glyph-name="Lslash" unicode="&#x141;" horiz-adv-x="559" 
d="M225 145h297v-145h-459v623l-137 -62v158l137 61v662h162v-590l189 84v-160l-189 -84v-547z" />
    <glyph glyph-name="lslash" unicode="&#x142;" horiz-adv-x="309" 
d="M420 938v-160l-180 -80v-698h-164v625l-144 -64v160l144 63v658h164v-584z" />
    <glyph glyph-name="Nacute" unicode="&#x143;" horiz-adv-x="702" 
d="M481 1745l-151 -240h-97l105 240h143zM473 1442h164v-1442h-164l-246 864v-864h-164v1442h164l246 -940v940z" />
    <glyph glyph-name="nacute" unicode="&#x144;" 
d="M541 1427l-152 -237h-96l104 237h144zM434 1098q117 0 168 -57.5t51 -172.5v-868h-161v819q0 74 -25.5 105.5t-83.5 31.5q-53 0 -96 -38t-43 -113v-805h-162v1073h111l10 -119q23 66 85.5 105t145.5 39z" />
    <glyph glyph-name="uni0145" unicode="&#x145;" horiz-adv-x="735" 
d="M492 1442h163v-1442h-163l-246 864v-864h-164v1442h164l246 -946v946zM291 -250v168h147v-168l-53 -131h-70l45 131h-69z" />
    <glyph glyph-name="uni0146" unicode="&#x146;" 
d="M434 1098q117 0 168 -57.5t51 -172.5v-868h-161v819q0 74 -25.5 105.5t-83.5 31.5q-53 0 -96 -38t-43 -113v-805h-162v1073h111l10 -119q23 66 85.5 105t145.5 39zM295 -250v168h147v-168l-53 -131h-70l46 131h-70z" />
    <glyph glyph-name="Ncaron" unicode="&#x147;" horiz-adv-x="735" 
d="M295 1505l-125 240h100l99 -141l96 141h100l-125 -240h-145zM492 1442h163v-1442h-163l-246 864v-864h-164v1442h164l246 -946v946z" />
    <glyph glyph-name="ncaron" unicode="&#x148;" 
d="M291 1190l-125 237h100l99 -139l96 139h100l-125 -237h-145zM434 1098q117 0 168 -57.5t51 -172.5v-868h-161v819q0 74 -25.5 105.5t-83.5 31.5q-53 0 -96 -38t-43 -113v-805h-162v1073h111l10 -119q23 66 85.5 105t145.5 39z" />
    <glyph glyph-name="Eng" unicode="&#x14a;" horiz-adv-x="735" 
d="M492 1442h163v-1553q0 -139 -67.5 -208.5t-196.5 -69.5h-80v137h76q105 0 105 137v115l-246 864v-864h-164v1442h164l246 -946v946z" />
    <glyph glyph-name="eng" unicode="&#x14b;" 
d="M434 1098q117 0 168 -57.5t51 -172.5v-888q0 -139 -68 -209t-196 -70h-82v137h78q107 0 107 137v844q0 74 -25.5 105.5t-83.5 31.5q-53 0 -96 -38t-43 -113v-805h-162v1073h111l10 -119q23 66 85.5 105t145.5 39z" />
    <glyph glyph-name="Omacron" unicode="&#x14c;" horiz-adv-x="727" 
d="M201 1632h327v-114h-327v114zM358 -20q-133 0 -211.5 74.5t-78.5 236.5v860q0 160 78.5 234.5t211.5 74.5h11q133 0 211.5 -75t78.5 -236v-858q0 -162 -78.5 -236.5t-211.5 -74.5h-11zM360 139h5q49 0 82.5 37t33.5 115v870q0 77 -34 115.5t-82 38.5h-3q-48 0 -82 -38.5
t-34 -115.5v-870q0 -78 33.5 -115t80.5 -37z" />
    <glyph glyph-name="omacron" unicode="&#x14d;" horiz-adv-x="681" 
d="M174 1231l111 96l219 -20l-113 -97zM336 -20q-124 0 -196 75t-72 215v539q0 139 72 214t196 75h10q124 0 196 -75t72 -214v-539q0 -140 -72 -215t-196 -75h-10zM338 123h4q53 0 88 36.5t35 112.5v533q0 76 -35.5 113.5t-87.5 37.5h-2q-51 0 -86 -37.5t-35 -113.5v-533
q0 -76 34.5 -112.5t84.5 -36.5z" />
    <glyph glyph-name="Ohungarumlaut" unicode="&#x150;" horiz-adv-x="731" 
d="M182 1505l105 240h143l-151 -240h-97zM391 1505l107 240h143l-152 -240h-98zM358 -20q-133 0 -211.5 74.5t-78.5 236.5v860q0 160 78.5 234.5t211.5 74.5h11q133 0 211.5 -75t78.5 -236v-858q0 -162 -78.5 -236.5t-211.5 -74.5h-11zM360 139h5q49 0 82.5 37t33.5 115v870
q0 77 -34 115.5t-82 38.5h-3q-48 0 -82 -38.5t-34 -115.5v-870q0 -78 33.5 -115t80.5 -37z" />
    <glyph glyph-name="ohungarumlaut" unicode="&#x151;" horiz-adv-x="702" 
d="M156 1190l104 237h146l-154 -237h-96zM367 1190l104 237h143l-151 -237h-96zM336 -20q-124 0 -196 75t-72 215v539q0 139 72 214t196 75h10q124 0 196 -75t72 -214v-539q0 -140 -72 -215t-196 -75h-10zM338 123h4q53 0 88 36.5t35 112.5v533q0 76 -35.5 113.5t-87.5 37.5
h-2q-51 0 -86 -37.5t-35 -113.5v-533q0 -76 34.5 -112.5t84.5 -36.5z" />
    <glyph glyph-name="OE" unicode="&#x152;" horiz-adv-x="1009" 
d="M973 1282h-311v-448h262v-154h-262v-518h311v-162h-475v6q-58 -24 -133 -24h-11q-130 0 -208 75.5t-78 235.5v858q0 160 77.5 234.5t208.5 74.5h11q76 0 135 -24v6h473v-160zM498 287v872q0 76 -35.5 113t-87.5 37l-2 -2q-51 0 -86 -36t-35 -112v-872q0 -76 34.5 -113
t84.5 -37h6q51 0 86 37t35 113z" />
    <glyph glyph-name="oe" unicode="&#x153;" horiz-adv-x="1073" 
d="M1006 467h-379v-188q0 -76 31.5 -113t78.5 -39h2q45 0 74 37.5t29 114.5v26h164v-43q0 -136 -72.5 -208t-190.5 -72h-10q-121 0 -192 71q-70 -73 -195 -73h-10q-124 0 -196 75t-72 215v539q0 139 72 214t196 75h10q120 0 193 -70q70 70 192 70h10q118 0 191.5 -70.5
t73.5 -204.5v-356zM342 123q53 0 88 36.5t35 112.5v533q0 76 -35.5 113.5t-87.5 37.5h-2q-51 0 -86 -37.5t-35 -113.5v-533q0 -76 34.5 -112.5t84.5 -36.5h4zM735 956q-47 0 -77.5 -36t-30.5 -113v-209h215v209q0 75 -31.5 112t-73.5 37h-2z" />
    <glyph glyph-name="Racute" unicode="&#x154;" horiz-adv-x="677" 
d="M473 1745l-151 -240h-97l105 240h143zM461 561l164 -561h-164l-148 530h-86v-530h-164v1442h267q282 0 282 -248v-383q0 -207 -151 -250zM330 696q60 0 90.5 31t30.5 109v331q0 131 -132 131h-92v-602h103z" />
    <glyph glyph-name="racute" unicode="&#x155;" horiz-adv-x="450" 
d="M348 1427l-151 -237h-99l107 237h143zM408 1073h18v-143h-70q-52 0 -90.5 -36t-38.5 -106v-788h-164v1073h127v-129q23 60 81 94.5t137 34.5z" />
    <glyph glyph-name="uni0156" unicode="&#x156;" horiz-adv-x="708" 
d="M479 561l162 -561h-162l-149 530h-86v-530h-162v1442h266q283 0 283 -248v-383q0 -206 -152 -250zM346 696q61 0 91 31t30 109v331q0 131 -129 131h-94v-602h102zM283 -287l10 160h117v-78l-25 -94l-59 -45l24 57h-67z" />
    <glyph glyph-name="uni0157" unicode="&#x157;" horiz-adv-x="468" 
d="M426 1073h18v-143h-69q-52 0 -90.5 -36t-38.5 -106v-788h-162v1073h125v-129q23 60 80.5 94.5t136.5 34.5zM88 -250v168h150v-168l-56 -131h-69l45 131h-70z" />
    <glyph glyph-name="Rcaron" unicode="&#x158;" horiz-adv-x="708" 
d="M272 1505l-127 240h101l98 -141l98 141h99l-125 -240h-144zM479 561l162 -561h-162l-149 530h-86v-530h-162v1442h266q283 0 283 -248v-383q0 -206 -152 -250zM346 696q61 0 91 31t30 109v331q0 131 -129 131h-94v-602h102z" />
    <glyph glyph-name="rcaron" unicode="&#x159;" horiz-adv-x="450" 
d="M172 1190l-125 237h98l99 -139l98 139h100l-127 -237h-143zM190 944q23 60 81 94.5t137 34.5h18v-143h-70q-52 0 -90.5 -36t-38.5 -106v-788h-164v1073h127v-129z" />
    <glyph glyph-name="Sacute" unicode="&#x15a;" horiz-adv-x="671" 
d="M236 1505l106 240h143l-151 -240h-98zM330 -20q-50 0 -97 16t-90 48.5t-69.5 93.5t-26.5 141v235h160v-223q0 -79 35.5 -115.5t91.5 -36.5h4q52 0 86.5 36.5t34.5 115.5v178q0 52 -22.5 93t-59 69t-80.5 54.5t-88 57t-80.5 66.5t-59 93t-22.5 128v154q0 65 17.5 115
t45.5 79.5t67.5 48.5t78 26t82.5 7h10q54 0 101.5 -15.5t88 -48.5t64 -90.5t23.5 -134.5v-221h-160v211q0 79 -36 116.5t-93 37.5h-2q-51 0 -88 -38.5t-37 -115.5v-104q0 -52 23 -93t59.5 -69t81 -54t89 -56t81 -67.5t59.5 -96t23 -132.5v-210q0 -81 -24.5 -141t-67 -93.5
t-90.5 -49t-103 -15.5h-10z" />
    <glyph glyph-name="sacute" unicode="&#x15b;" horiz-adv-x="632" 
d="M246 1190l104 237h144l-152 -237h-96zM315 -20q-73 0 -129.5 21.5t-94.5 77t-38 140.5v148h154v-115q0 -133 108 -133q115 0 115 125v96q0 37 -21 65t-54.5 46.5t-73.5 35.5t-80.5 38.5t-74 48.5t-54.5 73t-21 105v118q0 53 15 94t40 66.5t60 42t72 23t79 6.5
q46 0 86.5 -11t78 -36t59.5 -72.5t22 -112.5v-153h-147v141q0 63 -30 87t-69 24q-112 0 -112 -111v-90q0 -37 21 -65t54.5 -46t73.5 -34.5t80.5 -37t74 -47t54.5 -70.5t21 -101v-125q0 -73 -21 -125.5t-59.5 -81.5t-85 -42t-103.5 -13z" />
    <glyph glyph-name="Scedilla" unicode="&#x15e;" horiz-adv-x="671" 
d="M625 950h-160v211q0 79 -36 116.5t-93 37.5h-2q-51 0 -88 -38.5t-37 -115.5v-104q0 -52 23 -93t59.5 -69t81 -54t89 -56t81 -67.5t59.5 -96t23 -132.5v-210q0 -145 -73 -216.5t-181 -80.5l-31 -66h35q131 0 131 -129q0 -54 -37.5 -93.5t-101.5 -39.5q-89 0 -99 2v86
q10 -2 49 -2q93 0 93 47q0 31 -13 44t-57 13h-92v70l33 70q-45 7 -84.5 26.5t-74.5 53.5t-55 89t-20 126v235h160v-223q0 -79 35.5 -115.5t91.5 -36.5h4q52 0 86.5 36.5t34.5 115.5v178q0 52 -22.5 93t-59 69t-80.5 54.5t-88 57t-80.5 66.5t-59 93t-22.5 128v154
q0 65 17.5 115t45.5 79.5t67.5 48.5t78 26t82.5 7h10q54 0 101.5 -15.5t88 -48.5t64 -90.5t23.5 -134.5v-221z" />
    <glyph glyph-name="scedilla" unicode="&#x15f;" horiz-adv-x="632" 
d="M205 768q0 -37 21 -65t54.5 -46t73.5 -34.5t80.5 -37t74 -47t54.5 -70.5t21 -101v-125q0 -71 -20 -122.5t-56.5 -80.5t-80.5 -43t-99 -16l-29 -64h35q131 0 131 -129q0 -54 -37.5 -93.5t-101.5 -39.5q-89 0 -99 2v86q10 -2 49 -2q91 0 91 47q0 31 -12 44t-56 13h-94v70
l33 74q-83 16 -134 73t-51 158v148h154v-115q0 -133 108 -133q115 0 115 125v96q0 37 -21 65t-54.5 46.5t-73.5 35.5t-80.5 38.5t-74 48.5t-54.5 73t-21 105v118q0 53 15 94t40 66.5t60 42t72 23t79 6.5q46 0 86.5 -11t78 -36t59.5 -72.5t22 -112.5v-153h-147v141
q0 63 -30 87t-69 24q-112 0 -112 -111v-90z" />
    <glyph glyph-name="Scaron" unicode="&#x160;" horiz-adv-x="706" 
d="M283 1505l-127 240h100l98 -141l99 141h100l-127 -240h-143zM643 950h-160v211q0 79 -36 116.5t-93 37.5h-2q-51 0 -88 -38.5t-37 -115.5v-104q0 -52 23 -93t59.5 -69t81 -54t89 -56t81 -67.5t59.5 -96t23 -132.5v-210q0 -81 -24.5 -141t-67 -93.5t-90.5 -49t-103 -15.5
h-10q-39 0 -77 9t-75.5 31.5t-66 55.5t-46 85.5t-17.5 117.5v235h159v-223q0 -79 35.5 -115.5t91.5 -36.5h4q52 0 86.5 36.5t34.5 115.5v178q0 52 -22.5 93t-59 69t-80 54.5t-87.5 57t-80.5 66.5t-59 93t-22.5 128v154q0 80 25.5 137t70 86t91.5 41t103 12h11
q54 0 101.5 -15.5t87.5 -48.5t63.5 -90.5t23.5 -134.5v-221z" />
    <glyph glyph-name="scaron" unicode="&#x161;" horiz-adv-x="673" 
d="M268 1190l-127 237h101l98 -139l98 139h99l-125 -237h-144zM606 705h-153v147q0 33 -12 56.5t-31 34.5t-36 15.5t-34 4.5q-19 0 -36.5 -4.5t-36 -15.5t-29.5 -34.5t-11 -56.5v-84q0 -37 21 -65t54.5 -46t73.5 -34.5t80.5 -37t74 -47t54.5 -70.5t21 -101v-121
q0 -72 -22.5 -124.5t-62 -81t-85 -41.5t-100.5 -13q-51 0 -96.5 12.5t-85.5 39t-63 74t-23 111.5v174h153v-141q0 -69 35 -101t80 -32q49 0 83 30t34 95v92q0 37 -21 65t-54.5 46.5t-74.5 35.5t-81.5 38.5t-74 48.5t-54.5 73t-21 105v118q0 53 16 94t42 66.5t62 42t72 23
t76 6.5q48 0 91.5 -11t84.5 -36t65.5 -72.5t24.5 -112.5v-165z" />
    <glyph glyph-name="uni0162" unicode="&#x162;" horiz-adv-x="641" 
d="M401 0h-49l-37 -84h35q131 0 131 -129q0 -54 -37.5 -93.5t-101.5 -39.5q-88 0 -98 2v86q10 -2 49 -2q90 0 90 47q0 31 -12 44t-56 13h-94v70l39 86h-20v1282h-213v160h585v-160h-211v-1282z" />
    <glyph glyph-name="uni0163" unicode="&#x163;" horiz-adv-x="538" 
d="M502 928h-178v-658q0 -89 34.5 -105.5t143.5 13.5v-153l-105 -19q-33 -8 -65 -8l-37 -82h35q131 0 131 -129q0 -54 -38.5 -93.5t-103.5 -39.5q-88 0 -96 2v86q8 -2 47 -2q92 0 92 47q0 31 -12 44t-55 13h-94v70l45 98q-84 41 -84 187v729h-121v145h121v369h162v-369h178
v-145z" />
    <glyph glyph-name="Tcaron" unicode="&#x164;" horiz-adv-x="663" 
d="M262 1505l-125 240h99l98 -141l98 141h100l-126 -240h-144zM41 1442h586v-160h-213v-1282h-162v1282h-211v160z" />
    <glyph glyph-name="tcaron" unicode="&#x165;" horiz-adv-x="538" 
d="M170 1505l-125 240h98l99 -141l98 141h100l-127 -240h-143zM502 928h-178v-658q0 -89 34.5 -105.5t143.5 13.5v-153l-105 -19q-235 -53 -235 193v729h-121v145h121v369h162v-369h178v-145z" />
    <glyph glyph-name="Tbar" unicode="&#x166;" horiz-adv-x="663" 
d="M627 1282h-213v-160h151v-112h-151v-1010h-162v1010h-150v112h150v160h-211v160h586v-160z" />
    <glyph glyph-name="tbar" unicode="&#x167;" horiz-adv-x="526" 
d="M489 928h-180v-178h180v-113h-180v-367q0 -89 35 -105.5t145 13.5v-153l-106 -19q-116 -26 -176 22.5t-60 170.5v438h-120v113h120v178h-120v145h120v369h162v-369h180v-145z" />
    <glyph glyph-name="Umacron" unicode="&#x16a;" horiz-adv-x="727" 
d="M199 1632h329v-114h-329v114zM358 -20q-133 0 -211.5 74.5t-78.5 236.5v1151h168v-1151q0 -79 34.5 -115.5t89.5 -36.5h5q58 0 93.5 36t35.5 116v1151h165v-1151q0 -162 -78.5 -236.5t-211.5 -74.5h-11z" />
    <glyph glyph-name="umacron" unicode="&#x16b;" horiz-adv-x="704" 
d="M512 1327v-117h-330v117h330zM469 1073h162v-1073h-113l-10 115q-22 -62 -75 -97.5t-126 -35.5q-246 0 -246 245v846h162v-797q0 -74 32.5 -111.5t88.5 -37.5q52 0 88.5 36.5t36.5 112.5v797z" />
    <glyph glyph-name="Uring" unicode="&#x16e;" horiz-adv-x="700" 
d="M348 1466q-60 0 -102.5 43.5t-42.5 104.5q0 60 42.5 103.5t102.5 43.5q61 0 104.5 -43.5t43.5 -103.5t-43.5 -104t-104.5 -44zM348 1544q31 0 51.5 19.5t20.5 50.5q0 30 -21 51t-51 21q-29 0 -48 -21t-19 -51t19 -50t48 -20zM344 -20q-134 0 -212.5 74.5t-78.5 236.5
v1151h168v-1151q0 -79 35 -115.5t90 -36.5h4q58 0 93.5 36t35.5 116v1151h166v-1151q0 -162 -78.5 -236.5t-212.5 -74.5h-10z" />
    <glyph glyph-name="uring" unicode="&#x16f;" horiz-adv-x="696" 
d="M350 1143q-61 0 -104 43.5t-43 103.5q0 62 43 105t104 43q60 0 104 -43.5t44 -104.5q0 -60 -44 -103.5t-104 -43.5zM350 1362q-29 0 -49 -20.5t-20 -51.5q0 -29 20 -48t49 -19q31 0 51.5 19t20.5 48q0 30 -21 51t-51 21zM471 1073h162v-1073h-113l-10 115
q-22 -62 -75 -97.5t-126 -35.5q-248 0 -248 245v846h162v-797q0 -74 32.5 -111.5t88.5 -37.5q53 0 90 36.5t37 112.5v797z" />
    <glyph glyph-name="Uhungarumlaut" unicode="&#x170;" horiz-adv-x="731" 
d="M182 1505l105 240h143l-151 -240h-97zM391 1505l107 240h143l-152 -240h-98zM358 -20q-133 0 -211.5 74.5t-78.5 236.5v1151h168v-1151q0 -79 34.5 -115.5t89.5 -36.5h5q58 0 93.5 36t35.5 116v1151h165v-1151q0 -162 -78.5 -236.5t-211.5 -74.5h-11z" />
    <glyph glyph-name="uhungarumlaut" unicode="&#x171;" horiz-adv-x="704" 
d="M393 1427l-151 -237h-99l107 237h143zM453 1190h-99l105 237h145zM469 1073h162v-1073h-113l-10 115q-22 -62 -75 -97.5t-126 -35.5q-246 0 -246 245v846h162v-797q0 -74 32.5 -111.5t88.5 -37.5q52 0 88.5 36.5t36.5 112.5v797z" />
    <glyph glyph-name="Uogonek" unicode="&#x172;" horiz-adv-x="727" 
d="M494 1442h165v-1149q0 -253 -198 -301q-88 -71 -101 -85q-20 -23 -20 -50q0 -14 16 -22.5t43 -3.5t52 28v-113q-40 -26 -98.5 -27.5t-105 31t-46.5 92.5q0 42 22.5 73t73.5 71q-107 16 -168 91t-61 216v1149h168v-1149q0 -79 34.5 -115.5t89.5 -36.5h5q58 0 93.5 36
t35.5 116v1149z" />
    <glyph glyph-name="uogonek" unicode="&#x173;" horiz-adv-x="706" 
d="M502 -143q0 -14 16 -22.5t42.5 -3.5t51.5 28v-113q-40 -26 -98.5 -27.5t-105 31t-46.5 92.5q0 93 156 158l-10 115q-22 -62 -75 -97.5t-126 -35.5q-246 0 -246 245v846h162v-797q0 -74 32.5 -111.5t88.5 -37.5q52 0 88.5 36.5t36.5 112.5v797h162v-1073h2
q-12 -10 -30.5 -24.5t-26.5 -21t-21 -17t-18 -15.5l-13 -13t-10.5 -13l-6 -12t-4.5 -13t-1 -14z" />
    <glyph glyph-name="Wcircumflex" unicode="&#x174;" horiz-adv-x="1007" 
d="M504 1647l-98 -142h-101l127 240h143l127 -240h-100zM815 1442h156l-164 -1442h-201l-100 928l-103 -928h-198l-164 1442h162l114 -1192l121 1192h133l123 -1200z" />
    <glyph glyph-name="wcircumflex" unicode="&#x175;" horiz-adv-x="1007" 
d="M504 1331l-98 -141h-101l127 237h143l127 -237h-100zM815 1073h156l-164 -1073h-189l-112 762l-113 -762h-188l-164 1073h162l106 -895l129 895h133l131 -893z" />
    <glyph glyph-name="Ycircumflex" unicode="&#x176;" horiz-adv-x="712" 
d="M358 1647l-98 -142h-100l127 240h143l127 -240h-100zM512 1442h164l-232 -856v-586h-161l-9 586l-233 856h162l157 -629z" />
    <glyph glyph-name="ycircumflex" unicode="&#x177;" horiz-adv-x="688" 
d="M348 1329l-98 -139h-100l124 237h144l127 -237h-101zM463 1073h162v-1116q0 -141 -76 -210t-205 -69q-131 0 -203.5 73.5t-72.5 205.5v20h161q1 -78 32 -117.5t85 -39.5q49 0 83 37.5t34 113.5v191q-23 -45 -69 -70.5t-101 -25.5q-107 0 -166 66.5t-59 178.5v762h161
v-713q0 -73 32 -112t83 -39q48 0 83.5 37.5t35.5 113.5v713z" />
    <glyph glyph-name="Ydieresis" unicode="&#x178;" horiz-adv-x="712" 
d="M319 1669v-149h-145v149h145zM553 1669v-149h-145v149h145zM512 1442h164l-232 -856v-586h-161l-9 586l-233 856h162l157 -629z" />
    <glyph glyph-name="Zacute" unicode="&#x179;" horiz-adv-x="675" 
d="M252 1505l106 240h144l-152 -240h-98zM41 0v162l405 1118h-370v162h536v-160l-407 -1118l434 -2v-162h-598z" />
    <glyph glyph-name="zacute" unicode="&#x17a;" horiz-adv-x="550" 
d="M193 1190l104 237h143l-151 -237h-96zM41 0l4 158l297 760h-281v155h451l-6 -153l-297 -764l301 -2v-154h-469z" />
    <glyph glyph-name="Zdotaccent" unicode="&#x17b;" horiz-adv-x="675" 
d="M285 1520v149h145v-149h-145zM41 0v162l405 1118h-370v162h536v-160l-407 -1118l434 -2v-162h-598z" />
    <glyph glyph-name="zdotaccent" unicode="&#x17c;" horiz-adv-x="550" 
d="M205 1192v160h145v-160h-145zM41 0l4 158l297 760h-281v155h451l-6 -153l-297 -764l301 -2v-154h-469z" />
    <glyph glyph-name="Zcaron" unicode="&#x17d;" horiz-adv-x="649" 
d="M276 1505l-126 240h100l98 -141l98 141h101l-127 -240h-144zM612 1442v-160l-407 -1118l385 -2v-162h-549v162l405 1118h-370v162h536z" />
    <glyph glyph-name="zcaron" unicode="&#x17e;" horiz-adv-x="550" 
d="M217 1190l-125 237h101l98 -139l96 139h100l-125 -237h-145zM506 920l-297 -764l301 -2v-154h-469l4 158l297 760h-281v155h451z" />
    <glyph glyph-name="uni0218" unicode="&#x218;" horiz-adv-x="671" 
d="M330 -20q-50 0 -97 16t-90 48.5t-69.5 93.5t-26.5 141v235h160v-223q0 -79 35.5 -115.5t91.5 -36.5h4q52 0 86.5 36.5t34.5 115.5v178q0 52 -22.5 93t-59 69t-80.5 54.5t-88 57t-80.5 66.5t-59 93t-22.5 128v154q0 65 17.5 115t45.5 79.5t67.5 48.5t78 26t82.5 7h10
q54 0 101.5 -15.5t88 -48.5t64 -90.5t23.5 -134.5v-221h-160v211q0 79 -36 116.5t-93 37.5h-2q-51 0 -88 -38.5t-37 -115.5v-104q0 -52 23 -93t59.5 -69t81 -54t89 -56t81 -67.5t59.5 -96t23 -132.5v-210q0 -81 -24.5 -141t-67 -93.5t-90.5 -49t-103 -15.5h-10zM287 -381
l45 131h-70v168h148v-168l-54 -131h-69z" />
    <glyph glyph-name="uni0219" unicode="&#x219;" horiz-adv-x="632" 
d="M315 -20q-73 0 -129.5 21.5t-94.5 77t-38 140.5v148h154v-115q0 -133 108 -133q115 0 115 125v96q0 37 -21 65t-54.5 46.5t-73.5 35.5t-80.5 38.5t-74 48.5t-54.5 73t-21 105v118q0 53 15 94t40 66.5t60 42t72 23t79 6.5q46 0 86.5 -11t78 -36t59.5 -72.5t22 -112.5v-153
h-147v141q0 63 -30 87t-69 24q-112 0 -112 -111v-90q0 -37 21 -65t54.5 -46t73.5 -34.5t80.5 -37t74 -47t54.5 -70.5t21 -101v-125q0 -73 -21 -125.5t-59.5 -81.5t-85 -42t-103.5 -13zM240 -250v168h149v-168l-55 -131h-70l45 131h-69z" />
    <glyph glyph-name="uni021A" unicode="&#x21a;" horiz-adv-x="641" 
d="M240 0v1282h-213v160h585v-160h-211v-1282h-161zM268 -381l45 131h-69v168h149v-168l-55 -131h-70z" />
    <glyph glyph-name="uni021B" unicode="&#x21b;" horiz-adv-x="538" 
d="M502 928h-178v-658q0 -89 34.5 -105.5t143.5 13.5v-153l-105 -19q-235 -53 -235 193v729h-121v145h121v369h162v-369h178v-145zM217 -250v168h148v-168l-54 -131h-69l45 131h-70z" />
    <glyph glyph-name="circumflex" unicode="&#x2c6;" horiz-adv-x="399" 
d="M215 1745l137 -98l-106 -142l-160 99l27 30l-37 13h49z" />
    <glyph glyph-name="caron" unicode="&#x2c7;" horiz-adv-x="417" 
d="M299 1745h100l-125 -240h-145l-125 240h100l99 -141z" />
    <glyph glyph-name="breve" unicode="&#x2d8;" horiz-adv-x="466" 
d="M236 1501q-99 0 -157 60t-54 172h114q-6 -129 97 -129q106 0 96 129h114q4 -112 -53.5 -172t-156.5 -60z" />
    <glyph glyph-name="dotaccent" unicode="&#x2d9;" horiz-adv-x="190" 
d="M23 1520v149h145v-149h-145z" />
    <glyph glyph-name="ring" unicode="&#x2da;" horiz-adv-x="405" 
d="M199 1466q-61 0 -104.5 43t-43.5 105q0 60 43.5 103.5t104.5 43.5t104 -43.5t43 -103.5t-43 -104t-104 -44zM199 1544q31 0 51 19.5t20 50.5q0 29 -21 50.5t-50 21.5t-49.5 -21.5t-20.5 -50.5t20.5 -49.5t49.5 -20.5z" />
    <glyph glyph-name="ogonek" unicode="&#x2db;" horiz-adv-x="274" 
d="M272 0q-12 -10 -30.5 -24.5t-26.5 -21t-21 -17t-18 -15.5l-13 -13t-10.5 -13l-6 -12t-4.5 -13t-1 -14q0 -14 16 -22.5t43 -3.5t52 28v-113q-40 -26 -98.5 -27.5t-105 31t-46.5 92.5q0 46 26 79.5t89 78.5h155z" />
    <glyph glyph-name="tilde" unicode="&#x2dc;" horiz-adv-x="573" 
d="M143 1499l-92 45q30 73 107 91.5t147 -23.5l8 -4q18 -9 28.5 -12.5t26.5 -3.5t29 15t23 44l92 -45q-30 -81 -98.5 -100t-147.5 26q-17 9 -30.5 13.5t-32.5 5.5t-34.5 -12t-25.5 -40z" />
    <glyph glyph-name="hungarumlaut" unicode="&#x2dd;" horiz-adv-x="509" 
d="M33 1505l106 240h144l-152 -240h-98zM244 1505l104 240h146l-152 -240h-98z" />
    <glyph glyph-name="gravecomb" unicode="&#x300;" horiz-adv-x="0" 
d="M-10 1505h-99l-151 240h143z" />
    <glyph glyph-name="acutecomb" unicode="&#x301;" horiz-adv-x="0" 
d="M-268 1505l104 240h144l-152 -240h-96z" />
    <glyph glyph-name="uni0302" unicode="&#x302;" horiz-adv-x="0" 
d="M0 1505h-100l-97 142l-98 -142h-100l125 240h145z" />
    <glyph glyph-name="tildecomb" unicode="&#x303;" horiz-adv-x="0" 
d="M-401 1499l-93 45q30 73 107 91.5t147 -23.5l8 -4q18 -9 28.5 -12.5t26.5 -3.5t29 15t23 44l92 -45q-30 -81 -98.5 -100t-147.5 26q-17 9 -30.5 13.5t-32 5.5t-34 -12t-25.5 -40z" />
    <glyph glyph-name="uni0304" unicode="&#x304;" horiz-adv-x="0" 
d="M-420 1632h330v-114h-330v114z" />
    <glyph glyph-name="uni0306" unicode="&#x306;" horiz-adv-x="0" 
d="M-231 1501q-99 0 -157 60t-54 172h114q-6 -129 97 -129q106 0 96 129h115q4 -112 -54 -172t-157 -60z" />
    <glyph glyph-name="uni0307" unicode="&#x307;" horiz-adv-x="0" 
d="M-182 1520v149h147v-149h-147z" />
    <glyph glyph-name="uni0308" unicode="&#x308;" horiz-adv-x="0" 
d="M-420 1520v149h146v-149h-146zM-186 1520v149h147v-149h-147z" />
    <glyph glyph-name="uni030A" unicode="&#x30a;" horiz-adv-x="0" 
d="M-199 1466q-61 0 -104 43t-43 105q0 60 43 103.5t104 43.5q60 0 104 -43.5t44 -103.5t-44 -104t-104 -44zM-199 1544q31 0 51.5 19.5t20.5 50.5q0 29 -21.5 50.5t-50.5 21.5q-30 0 -49.5 -21t-19.5 -51t19.5 -50t49.5 -20z" />
    <glyph glyph-name="uni030B" unicode="&#x30b;" horiz-adv-x="0" 
d="M-492 1505l107 240h143l-151 -240h-99zM-281 1505l105 240h145l-151 -240h-99z" />
    <glyph glyph-name="uni030C" unicode="&#x30c;" horiz-adv-x="0" 
d="M-111 1745h101l-127 -240h-144l-125 240h101l98 -141z" />
    <glyph glyph-name="uni0312" unicode="&#x312;" horiz-adv-x="0" 
d="M-41 1321v-178h-147v178l53 121h69l-45 -121h70z" />
    <glyph glyph-name="uni0326" unicode="&#x326;" horiz-adv-x="0" 
d="M-190 -250v168h149v-168l-55 -131h-68l43 131h-69z" />
    <glyph glyph-name="uni0327" unicode="&#x327;" horiz-adv-x="0" 
d="M-293 -156v70l45 98h92l-43 -96h35q131 0 131 -129q0 -54 -38.5 -93.5t-102.5 -39.5q-88 0 -96 2v86q8 -2 47 -2q92 0 92 47q0 31 -12.5 44t-55.5 13h-94z" />
    <glyph glyph-name="uni0328" unicode="&#x328;" horiz-adv-x="0" 
d="M-2 0q-12 -10 -30.5 -24.5t-26.5 -21t-21 -17t-18 -15.5l-13 -13t-10.5 -13l-6 -12t-4.5 -13t-1 -14q0 -14 16 -22.5t42.5 -3.5t51.5 28v-113q-40 -26 -98 -27.5t-104.5 31t-46.5 92.5q0 47 26 80t88 78h156z" />
    <glyph glyph-name="Wgrave" unicode="&#x1e80;" horiz-adv-x="1007" 
d="M557 1518h-96l-154 237h146zM815 1442h156l-164 -1442h-201l-100 928l-103 -928h-198l-164 1442h162l114 -1192l121 1192h133l123 -1200z" />
    <glyph glyph-name="wgrave" unicode="&#x1e81;" horiz-adv-x="1007" 
d="M555 1190h-98l-152 237h144zM815 1073h156l-164 -1073h-189l-112 762l-113 -762h-188l-164 1073h162l106 -895l129 895h133l131 -893z" />
    <glyph glyph-name="Wacute" unicode="&#x1e82;" horiz-adv-x="1007" 
d="M696 1745l-151 -240h-96l104 240h143zM815 1442h156l-164 -1442h-201l-100 928l-103 -928h-198l-164 1442h162l114 -1192l121 1192h133l123 -1200z" />
    <glyph glyph-name="wacute" unicode="&#x1e83;" horiz-adv-x="1007" 
d="M702 1427l-151 -237h-98l106 237h143zM815 1073h156l-164 -1073h-189l-112 762l-113 -762h-188l-164 1073h162l106 -895l129 895h133l131 -893z" />
    <glyph glyph-name="Wdieresis" unicode="&#x1e84;" horiz-adv-x="1007" 
d="M463 1669v-149h-146v149h146zM696 1669v-149h-145v149h145zM815 1442h156l-164 -1442h-201l-100 928l-103 -928h-198l-164 1442h162l114 -1192l121 1192h133l123 -1200z" />
    <glyph glyph-name="wdieresis" unicode="&#x1e85;" horiz-adv-x="1007" 
d="M465 1352v-160h-146v160h146zM700 1352v-160h-147v160h147zM815 1073h156l-164 -1073h-189l-112 762l-113 -762h-188l-164 1073h162l106 -895l129 895h133l131 -893z" />
    <glyph glyph-name="Ygrave" unicode="&#x1ef2;" horiz-adv-x="712" 
d="M422 1505h-98l-152 240h143zM512 1442h164l-232 -856v-586h-161l-9 586l-233 856h162l157 -629z" />
    <glyph glyph-name="ygrave" unicode="&#x1ef3;" horiz-adv-x="688" 
d="M416 1190h-97l-151 237h143zM463 1073h162v-1116q0 -141 -76 -210t-205 -69q-131 0 -203.5 73.5t-72.5 205.5v20h161q1 -78 32 -117.5t85 -39.5q49 0 83 37.5t34 113.5v191q-23 -45 -69 -70.5t-101 -25.5q-107 0 -166 66.5t-59 178.5v762h161v-713q0 -73 32 -112t83 -39
q48 0 83.5 37.5t35.5 113.5v713z" />
    <glyph glyph-name="endash" unicode="&#x2013;" horiz-adv-x="806" 
d="M33 707h743v-123h-743v123z" />
    <glyph glyph-name="emdash" unicode="&#x2014;" horiz-adv-x="964" 
d="M33 707h901v-123h-901v123z" />
    <glyph glyph-name="quoteleft" unicode="&#x2018;" horiz-adv-x="229" 
d="M188 1180h-147v178l53 121h70l-45 -121h69v-178z" />
    <glyph glyph-name="quoteright" unicode="&#x2019;" horiz-adv-x="229" 
d="M41 1442h147v-180l-53 -119h-69l45 119h-70v180z" />
    <glyph glyph-name="quotesinglbase" unicode="&#x201a;" horiz-adv-x="223" 
 />
    <glyph glyph-name="quotedblleft" unicode="&#x201c;" horiz-adv-x="442" 
d="M49 1180v178l53 121h70l-45 -121h70v-178h-148zM246 1180v178l53 121h70l-45 -121h69v-178h-147z" />
    <glyph glyph-name="quotedblright" unicode="&#x201d;" horiz-adv-x="442" 
d="M49 1442h148v-180l-54 -119h-69l45 119h-70v180zM246 1442h147v-180l-53 -119h-70l45 119h-69v180z" />
    <glyph glyph-name="quotedblbase" unicode="&#x201e;" horiz-adv-x="223" 
 />
    <glyph glyph-name="dagger" unicode="&#x2020;" horiz-adv-x="868" 
d="M840 1079v-137h-336v-1229h-137v1229h-338v137h338v379h137v-379h336z" />
    <glyph glyph-name="daggerdbl" unicode="&#x2021;" horiz-adv-x="868" 
d="M840 942h-336v-784h336v-140h-336v-305h-137v305h-338v140h338v784h-338v137h338v379h137v-379h336v-137z" />
    <glyph glyph-name="bullet" unicode="&#x2022;" horiz-adv-x="352" 
d="M178 612q-133 0 -133 131t133 131q129 0 129 -131t-129 -131z" />
    <glyph glyph-name="ellipsis" unicode="&#x2026;" horiz-adv-x="710" 
d="M57 168h146v-168h-146v168zM281 168h145v-168h-145v168zM508 168h145v-168h-145v168z" />
    <glyph glyph-name="perthousand" unicode="&#x2030;" horiz-adv-x="1439" 
d="M252 842q-97 0 -150 63.5t-53 188.5v114q0 125 53 189.5t150 64.5h10q97 0 150 -64.5t53 -189.5v-114q0 -125 -53 -188.5t-150 -63.5h-10zM51 0l740 1442h127l-742 -1442h-125zM254 944h4q96 0 96 139v138q0 139 -96 139h-2q-96 0 -96 -139v-138q0 -139 94 -139zM723 -20
q-104 0 -153.5 61.5t-49.5 189.5v117q0 127 49.5 189.5t153.5 62.5h10q203 0 203 -252v-117q0 -127 -50 -189t-153 -62h-10zM1194 -20q-103 0 -152 61.5t-49 189.5v117q0 252 201 252h10q205 0 205 -252v-117q0 -128 -50.5 -189.5t-154.5 -61.5h-10zM725 82h4q96 0 96 139
v137q0 140 -96 140h-2q-96 0 -96 -140v-137q0 -139 94 -139zM1198 82h4q96 0 96 139v137q0 140 -98 140h-2q-94 0 -94 -140v-137q0 -139 94 -139z" />
    <glyph glyph-name="guilsinglleft" unicode="&#x2039;" horiz-adv-x="567" 
d="M375 250l-342 336l342 338h170l-342 -338l342 -336h-170z" />
    <glyph glyph-name="guilsinglright" unicode="&#x203a;" horiz-adv-x="567" 
d="M23 250l342 336l-342 338h170l342 -338l-342 -336h-170z" />
    <glyph glyph-name="fraction" unicode="&#x2044;" horiz-adv-x="616" 
d="M461 1442h127l-434 -1442h-125z" />
    <glyph glyph-name="Euro" unicode="&#x20ac;" horiz-adv-x="661" 
d="M616 924h-151v110q0 72 -34.5 108t-84.5 36q-49 0 -83 -36t-34 -108v-209h252v-112h-252v-103h252v-112h-252v-230q0 -72 34 -106.5t85 -34.5q49 0 83 35t34 106v119h151v-106q0 -295 -270 -295q-126 0 -197 73t-71 222v217h-78v112h78v103h-78v112h78v224
q0 127 71.5 192.5t196.5 65.5q132 0 201 -67.5t69 -190.5v-125z" />
    <glyph glyph-name="trademark" unicode="&#x2122;" horiz-adv-x="743" 
d="M27 1360v82h264v-82h-90v-565h-82v565h-92zM662 1442v-647h-82v379l-56 -379h-55l-57 385v-385h-82v647h112l54 -451l57 451h109z" />
    <glyph glyph-name="partialdiff" unicode="&#x2202;" horiz-adv-x="757" 
d="M524 1458q128 0 190.5 -69t35.5 -205l-181 -926q-25 -130 -113.5 -202t-226.5 -72q-124 0 -186 70.5t-35 203.5l88 465q28 142 104 205t199 63q112 0 140 -61l49 254q14 73 -13.5 109t-76.5 36q-50 0 -92.5 -36.5t-55.5 -108.5l-22 -111h-162l22 111q25 129 113 201.5
t223 72.5zM496 719q14 76 -13.5 113.5t-76.5 37.5t-90.5 -37.5t-55.5 -113.5l-88 -445q-14 -74 13 -109.5t77 -35.5q54 0 94.5 37.5t55.5 107.5z" />
    <glyph glyph-name="emptyset" unicode="&#x2205;" horiz-adv-x="856" 
d="M846 1450l-135 -281v-22v-852q0 -161 -77 -236t-206 -75h-10q-159 0 -230 106l-43 -90h-137l129 268v27v854q0 160 76.5 234.5t204.5 74.5h10q161 0 231 -108l50 100h137zM315 1159v-522l220 453v69q0 77 -33.5 114.5t-77.5 37.5h-2q-41 0 -74 -38t-33 -114zM535 295v510
l-220 -453v-57q0 -77 32.5 -115.5t72.5 -38.5h6q43 0 76 38t33 116z" />
    <glyph glyph-name="product" unicode="&#x220f;" horiz-adv-x="1107" 
d="M1028 1612v-2013h-137v1900l-674 -2v-1898h-135v2013h946z" />
    <glyph glyph-name="summation" unicode="&#x2211;" horiz-adv-x="894" 
d="M840 1612v-113l-758 -2v115h758zM82 -270l346 882l-346 885h145l344 -885l-344 -882h613v-113l-758 -6v119z" />
    <glyph glyph-name="minus" unicode="&#x2212;" horiz-adv-x="735" 
d="M23 795h690v-121h-690v121z" />
    <glyph glyph-name="radical" unicode="&#x221a;" horiz-adv-x="1064" 
d="M885 1638h135l-438 -2048h-133l-189 881l-205 -2v115h316l145 -680z" />
    <glyph glyph-name="infinity" unicode="&#x221e;" horiz-adv-x="1026" 
d="M733 809q81 0 135.5 -14t82 -42t38 -60t10.5 -77t-10.5 -76.5t-38.5 -59t-82 -41t-135 -13.5q-158 0 -219 61q-58 -61 -223 -61q-148 0 -205 49.5t-57 140.5q0 44 11.5 76.5t40 60t81 42t129.5 14.5q165 0 223 -61q61 61 219 61zM291 535q105 0 141.5 20t36.5 61
q0 43 -36.5 63.5t-141.5 20.5q-98 0 -136 -21t-38 -63q0 -40 38 -60.5t136 -20.5zM733 535q103 0 139.5 20t36.5 61q0 42 -36.5 63t-139.5 21q-100 0 -138 -21t-38 -63q0 -40 38 -60.5t138 -20.5z" />
    <glyph glyph-name="integral" unicode="&#x222b;" horiz-adv-x="440" 
d="M418 1612h61v-121h-41q-70 0 -109.5 -40t-39.5 -126v-1425q0 -145 -70 -216t-196 -71h-62v121h31q68 0 107.5 40.5t39.5 125.5v1425q0 142 76 214.5t203 72.5z" />
    <glyph glyph-name="approxequal" unicode="&#x2248;" horiz-adv-x="944" 
d="M465 674q-68 32 -120.5 49.5t-103 22.5t-77.5 -20t-27 -81h-104q0 80 28.5 130.5t74 68t104.5 14t117 -23t116 -50.5q64 -29 120.5 -44.5t106 -16t78.5 27.5t29 83h104q0 -79 -29.5 -131t-76.5 -72t-106.5 -20.5t-119 17t-114.5 46.5zM465 403q-44 21 -81 35.5t-76 26
t-68.5 12t-53.5 -8t-36.5 -32t-12.5 -61.5h-104q0 80 28.5 130.5t74 68t104.5 14t117 -23t116 -50.5q64 -30 120.5 -45.5t106 -15.5t78.5 28t29 84h104q0 -80 -29.5 -132.5t-76.5 -72.5t-106.5 -20.5t-118.5 17t-115 46.5z" />
    <glyph glyph-name="notequal" unicode="&#x2260;" horiz-adv-x="735" 
d="M713 674h-248l-43 -203h291v-121h-318l-59 -280h-158l60 280h-215v121h241l43 203h-284v121h311l47 223h158l-47 -223h221v-121z" />
    <glyph glyph-name="lessequal" unicode="&#x2264;" horiz-adv-x="565" 
d="M543 250h-172l-342 336l342 338h172l-342 -338zM541 121v-121h-506v121h506z" />
    <glyph glyph-name="greaterequal" unicode="&#x2265;" horiz-adv-x="565" 
d="M23 250l342 336l-342 338h170l342 -338l-342 -336h-170zM23 121h507v-121h-507v121z" />
    <glyph glyph-name="J.ss01" horiz-adv-x="495" 
d="M41 160h106q50 0 84.5 36.5t34.5 112.5v1133h162v-1133q0 -159 -69.5 -234t-208.5 -75q-99 0 -109 2v158z" />
    <glyph glyph-name="i.loclTRK" horiz-adv-x="325" 
d="M90 1210v160h146v-160h-146zM82 0v1073h162v-1073h-162z" />
    <glyph glyph-name="L_A" horiz-adv-x="1005" 
d="M244 1442v-1278h725v-164h-887v1442h162zM545 514l-33 -242h-162l176 1170h258l185 -1170h-162l-35 242h-227zM659 1280h-10l-84 -610h185z" />
    <glyph glyph-name="L_E" horiz-adv-x="864" 
d="M82 0v1442h162v-1278h583v-164h-745zM352 272l2 1170h473v-160h-311v-352h262v-156h-262v-340h311v-162h-475z" />
    <glyph glyph-name="L_U" horiz-adv-x="1015" 
d="M82 0v1442h162v-1278h704v-164h-866zM647 254q-133 0 -211 75t-78 236v877h166v-877q0 -79 35 -115t90 -36h6q56 0 91.5 36t35.5 115v877h166v-877q0 -161 -78.5 -236t-212.5 -75h-10z" />
    <glyph glyph-name="L_o" horiz-adv-x="1001" 
d="M643 246q-125 0 -201.5 76.5t-76.5 214.5v626q0 138 76.5 214.5t201.5 76.5h10q125 0 203 -77t78 -214v-626q0 -137 -78 -214t-203 -77h-10zM82 0v1442h162v-1278h690v-164h-852zM645 391h4q51 0 87 41.5t36 118.5v598q0 77 -36 119.5t-87 42.5h-2q-50 0 -85.5 -42.5
t-35.5 -119.5v-598q0 -77 35.5 -118.5t83.5 -41.5z" />
    <glyph glyph-name="N_N" horiz-adv-x="1144" 
d="M901 1442h164v-1442h-164l-246 864v-864h-163l-246 864v-864h-164v1442h164l246 -946v946h163l246 -946v946z" />
    <glyph glyph-name="N_o" horiz-adv-x="1417" 
d="M1069 1456q125 0 203 -77t78 -214v-608q0 -137 -78 -214t-203 -77h-10q-125 0 -203 77t-78 214v608q0 137 78 214t203 77h10zM492 496v946h163v-1442h-163l-246 864v-864h-164v1442h164zM1188 571v580q0 77 -36 119.5t-87 42.5h-2q-50 0 -85.5 -42.5t-35.5 -119.5v-580
q0 -77 35 -118t84 -41h4q51 0 87 41t36 118zM782 0v164h568v-164h-568z" />
    <glyph glyph-name="c_t" horiz-adv-x="1218" 
d="M1182 928h-181v-658q0 -89 35.5 -105.5t145.5 13.5v-153l-107 -19q-235 -53 -235 193v729h-109v145h109v318q0 149 -103 149q-102 0 -102 -149v-738h-162v154q0 76 -35 112.5t-88 36.5q-51 0 -86 -36.5t-35 -112.5v-531q0 -76 35 -112.5t88 -36.5q51 0 86 36.5t35 112.5
v158h162v-172q0 -135 -74.5 -206.5t-212.5 -71.5q-128 0 -204 70.5t-76 207.5v561q0 136 76.5 207.5t203.5 71.5q66 0 125 -19v299q0 133 70 206t194 73q126 0 195 -70t69 -209v-309h181v-145z" />
    <glyph glyph-name="f_h" horiz-adv-x="1232" 
d="M961 1098q108 0 156 -63t48 -181v-854h-161v807q0 149 -109 149q-56 0 -96.5 -37.5t-40.5 -113.5v-805h-162v1319h-125q-68 0 -107.5 -40t-39.5 -124v-82h178v-145h-178v-928h-162v928h-121v145h121v82q0 143 75.5 215t202.5 72h318v-451q31 49 85.5 78t117.5 29z" />
    <glyph glyph-name="s_t" horiz-adv-x="1163" 
d="M1124 928h-178v-658q0 -89 34.5 -105.5t143.5 13.5v-153l-104 -19q-116 -26 -176 22.5t-60 170.5v729h-108v145h108v217h2v101q0 149 -102 149q-104 0 -104 -149v-674h-148v141q0 63 -29 87t-67 24q-113 0 -113 -111v-90q0 -37 21 -65t54.5 -46t73.5 -34.5t80.5 -37
t74 -47t54.5 -70.5t21 -101v-123q0 -140 -74 -201t-194 -61q-115 0 -188.5 57t-73.5 182v146h153v-113q0 -133 109 -133q115 0 115 125v94q0 37 -21 65t-54.5 46.5t-73.5 35.5t-80.5 38.5t-74 48.5t-54.5 73t-21 105v118q0 53 15 94t40 66.5t60 42t72 23t79 6.5q50 0 96 -15
v295q0 135 64 207t188 72q126 0 195 -70t69 -209v-168h-2v-141h178v-145z" />
    </font>
</defs>
</svg>
